<?xml version="1.0" encoding="UTF-8"?>
<svg version="1.1" xmlns="http://www.w3.org/2000/svg" width="128" height="128">
<path d="M0 0 C0.88953369 0.03915527 1.77906738 0.07831055 2.69555664 0.11865234 C8.54328605 0.42789302 8.54328605 0.42789302 10.8125 1.5625 C12.111875 1.6553125 12.111875 1.6553125 13.4375 1.75 C19.86730598 3.29791625 25.26535486 8.04471868 28.8125 13.5625 C31.33206037 19.34045108 32.25368004 23.94099834 32.21655273 30.20654297 C32.22341599 31.03045532 32.23027924 31.85436768 32.23735046 32.70324707 C32.25552444 35.40390679 32.25179409 38.10398025 32.24609375 40.8046875 C32.25066045 42.69744045 32.25596747 44.59019175 32.26197815 46.48294067 C32.27089111 50.44198357 32.26850729 54.40082456 32.25854492 58.35986328 C32.24706467 63.41239301 32.26726161 68.46422285 32.29646206 73.51666069 C32.31488359 77.42367927 32.31451965 81.33053201 32.30882454 85.23758316 C32.30867201 87.09935614 32.31465894 88.96114085 32.32711601 90.82287216 C32.45224329 112.58942153 32.45224329 112.58942153 24.5 121.5 C18.78494665 127.13202594 12.36760561 128.01096157 4.73120117 127.99829102 C3.40776955 128.01340477 3.40776955 128.01340477 2.05760193 128.02882385 C-0.84323999 128.0571924 -3.74355947 128.06317484 -6.64453125 128.06640625 C-8.67323516 128.07605529 -10.701937 128.08614835 -12.7306366 128.09666443 C-16.97810706 128.11459821 -21.22539476 128.12018831 -25.47290039 128.1184082 C-30.89673348 128.11810357 -36.31938631 128.15905066 -41.74293995 128.21072483 C-45.93219815 128.24419796 -50.12117439 128.25016242 -54.3105526 128.24857903 C-56.30912022 128.25210274 -58.30769642 128.26527984 -60.30613136 128.28857613 C-80.86562364 128.50580769 -80.86562364 128.50580769 -88.1875 121.5625 C-97.29271985 111.0767473 -96.49100553 98.49177289 -96.453125 85.3125 C-96.45447529 83.64680932 -96.45641884 81.98111903 -96.45892334 80.31542969 C-96.4618575 76.83915421 -96.45763232 73.36298212 -96.44824219 69.88671875 C-96.43684869 65.45546231 -96.44341737 61.02444825 -96.45538712 56.59320068 C-96.46265209 53.15802216 -96.46029661 49.72290005 -96.45513153 46.28771973 C-96.45380783 44.65482555 -96.45539731 43.02192606 -96.46009064 41.38903809 C-96.51415226 17.30011243 -96.51415226 17.30011243 -88.1875 7.5625 C-83.91835418 3.92918441 -80.67814663 3.19603615 -75.1875 2.5625 C-74.5275 1.9025 -73.8675 1.2425 -73.1875 0.5625 C-70.05660854 0.23227662 -67.01653577 0.04067829 -63.875 -0.0625 C-62.88314697 -0.09972168 -61.89129395 -0.13694336 -60.86938477 -0.17529297 C-40.61736544 -0.83352531 -20.24439391 -0.89346477 0 0 Z " fill="#4DAAD6" transform="translate(96.1875,0.4375)"/>
<path d="M0 0 C0.88953369 0.03915527 1.77906738 0.07831055 2.69555664 0.11865234 C8.54328605 0.42789302 8.54328605 0.42789302 10.8125 1.5625 C11.8025 1.8925 12.7925 2.2225 13.8125 2.5625 C18.53713474 5.8825136 23.19976983 10.33703966 25.8125 15.5625 C25.89823394 17.81370742 25.91962188 20.06749303 25.91015625 22.3203125 C25.9087413 22.98336395 25.90732635 23.64641541 25.90586853 24.32955933 C25.90026754 26.44891863 25.887715 28.56817259 25.875 30.6875 C25.86998512 32.12369639 25.86542219 33.55989444 25.86132812 34.99609375 C25.85029782 38.51826345 25.83303259 42.04037145 25.8125 45.5625 C23.73030951 46.37792431 21.64670239 47.18973189 19.5625 48 C18.40234375 48.45246094 17.2421875 48.90492187 16.046875 49.37109375 C13.62283692 50.26400633 11.32963525 51.02044365 8.8125 51.5625 C9.1425 50.5725 9.4725 49.5825 9.8125 48.5625 C6.8425 48.2325 3.8725 47.9025 0.8125 47.5625 C2.8125 44.5625 2.8125 44.5625 5.9375 43.875 C6.88625 43.771875 7.835 43.66875 8.8125 43.5625 C8.07 43.43875 7.3275 43.315 6.5625 43.1875 C4.00174619 42.6055105 2.12435302 41.75828604 -0.1875 40.5625 C-0.8475 40.5625 -1.5075 40.5625 -2.1875 40.5625 C-2.1875 41.2225 -2.1875 41.8825 -2.1875 42.5625 C-1.5275 42.5625 -0.8675 42.5625 -0.1875 42.5625 C-0.5175 48.1725 -0.8475 53.7825 -1.1875 59.5625 C-2.1775 59.5625 -3.1675 59.5625 -4.1875 59.5625 C-4.32027344 60.13484375 -4.45304687 60.7071875 -4.58984375 61.296875 C-5.18130317 63.53900875 -5.92038854 65.64829619 -6.75 67.8125 C-7.01941406 68.51890625 -7.28882812 69.2253125 -7.56640625 69.953125 C-7.77136719 70.48421875 -7.97632812 71.0153125 -8.1875 71.5625 C-8.8475 71.5625 -9.5075 71.5625 -10.1875 71.5625 C-10.5175 72.2225 -10.8475 72.8825 -11.1875 73.5625 C-14.43354581 76.53804199 -16.78602343 78.05947411 -21.1875 78.5625 C-21.6825 80.5425 -21.6825 80.5425 -22.1875 82.5625 C-22.5175 81.9025 -22.8475 81.2425 -23.1875 80.5625 C-28.7975 80.2325 -34.4075 79.9025 -40.1875 79.5625 C-40.6825 81.5425 -40.6825 81.5425 -41.1875 83.5625 C-42.5075 82.9025 -43.8275 82.2425 -45.1875 81.5625 C-46.5075 82.8825 -47.8275 84.2025 -49.1875 85.5625 C-49.1875 84.2425 -49.1875 82.9225 -49.1875 81.5625 C-50.1775 82.0575 -50.1775 82.0575 -51.1875 82.5625 C-51.5175 81.2425 -51.8475 79.9225 -52.1875 78.5625 C-53.1775 79.0575 -53.1775 79.0575 -54.1875 79.5625 C-54.1875 78.5725 -54.1875 77.5825 -54.1875 76.5625 C-55.1775 76.8925 -56.1675 77.2225 -57.1875 77.5625 C-57.1875 74.89583333 -57.1875 72.22916667 -57.1875 69.5625 C-57.8475 69.2325 -58.5075 68.9025 -59.1875 68.5625 C-58.5275 67.2425 -57.8675 65.9225 -57.1875 64.5625 C-57.8475 64.5625 -58.5075 64.5625 -59.1875 64.5625 C-60.54189668 61.85370665 -60.25251451 59.55316732 -60.1875 56.5625 C-60.8475 56.5625 -61.5075 56.5625 -62.1875 56.5625 C-62.1875 55.9025 -62.1875 55.2425 -62.1875 54.5625 C-63.6725 54.0675 -63.6725 54.0675 -65.1875 53.5625 C-64.8575 52.9025 -64.5275 52.2425 -64.1875 51.5625 C-65.6725 51.0675 -65.6725 51.0675 -67.1875 50.5625 C-66.1975 49.9025 -65.2075 49.2425 -64.1875 48.5625 C-64.1875 47.2425 -64.1875 45.9225 -64.1875 44.5625 C-64.8475 43.9025 -65.5075 43.2425 -66.1875 42.5625 C-66.8475 42.5625 -67.5075 42.5625 -68.1875 42.5625 C-68.1875 43.8825 -68.1875 45.2025 -68.1875 46.5625 C-69.1775 47.0575 -69.1775 47.0575 -70.1875 47.5625 C-69.8575 48.2225 -69.5275 48.8825 -69.1875 49.5625 C-69.8475 50.5525 -70.5075 51.5425 -71.1875 52.5625 C-80.0975 49.0975 -80.0975 49.0975 -89.1875 45.5625 C-89.24159111 41.20816577 -89.28122083 36.85450795 -89.3125 32.5 C-89.32925781 31.27087891 -89.34601563 30.04175781 -89.36328125 28.77539062 C-89.40285167 21.43507728 -89.39421431 15.42425004 -85.6875 8.9375 C-82.03498462 5.46761039 -77.75286816 3.60994564 -73.1875 1.5625 C-73.1875 1.2325 -73.1875 0.9025 -73.1875 0.5625 C-48.85838551 -0.8641287 -24.35156102 -1.07473022 0 0 Z " fill="#9EBADB" transform="translate(96.1875,0.4375)"/>
<path d="M0 0 C0.73798828 -0.01611328 1.47597656 -0.03222656 2.23632812 -0.04882812 C8.38511429 -0.05429371 12.47341073 1.42722431 17.125 5.625 C17.929375 6.511875 18.73375 7.39875 19.5625 8.3125 C20.23152344 9.04533203 20.23152344 9.04533203 20.9140625 9.79296875 C26.44754848 16.08690455 27.99443514 22.85465532 27.8359375 31.17578125 C26.86107442 38.79363993 22.18055321 45.30608968 16.5625 50.3125 C8.87103465 55.20449818 1.5839755 56.0669091 -7.4375 55.3125 C-15.52562376 53.11425071 -21.33397226 48.47355834 -25.8125 41.5 C-29.50622964 34.26888906 -29.61970429 27.16169312 -28.4375 19.3125 C-25.50866967 10.88799928 -18.96577655 5.182213 -11.1875 1.14453125 C-7.42160066 0.00513273 -3.91320911 -0.01699917 0 0 Z " fill="#F6CD22" transform="translate(65.4375,22.6875)"/>
<path d="M0 0 C4.1400278 0.53301945 6.41439034 1.71643826 9.5625 4.4375 C10.67818359 5.36369141 10.67818359 5.36369141 11.81640625 6.30859375 C19.49602715 15.774173 18.58949608 26.90222368 18.53125 38.4375 C18.53394947 40.3273946 18.53783566 42.21728785 18.54284668 44.10717773 C18.54872033 48.05433468 18.54024791 52.00112778 18.52148438 55.94824219 C18.49869615 60.98505115 18.51183073 66.02100729 18.53577423 71.05778503 C18.55029011 74.95624106 18.54559978 78.85449788 18.53526306 82.75296021 C18.53261175 84.60914208 18.5358088 86.46534258 18.54518127 88.32150269 C18.6307998 110.03904247 18.6307998 110.03904247 10.6875 118.9375 C4.97244665 124.56952594 -1.44489439 125.44846157 -9.08129883 125.43579102 C-10.40473045 125.45090477 -10.40473045 125.45090477 -11.75489807 125.46632385 C-14.65573999 125.4946924 -17.55605947 125.50067484 -20.45703125 125.50390625 C-22.48573516 125.51355529 -24.514437 125.52364835 -26.5431366 125.53416443 C-30.79060706 125.55209821 -35.03789476 125.55768831 -39.28540039 125.5559082 C-44.70923348 125.55560357 -50.13188631 125.59655066 -55.55543995 125.64822483 C-59.74469815 125.68169796 -63.93367439 125.68766242 -68.1230526 125.68607903 C-70.12162022 125.68960274 -72.12019642 125.70277984 -74.11863136 125.72607613 C-94.67812364 125.94330769 -94.67812364 125.94330769 -102 119 C-111.10521985 108.5142473 -110.30350553 95.92927289 -110.265625 82.75 C-110.26697529 81.08430932 -110.26891884 79.41861903 -110.27142334 77.75292969 C-110.2743575 74.27665421 -110.27013232 70.80048212 -110.26074219 67.32421875 C-110.24934869 62.89296231 -110.25591737 58.46194825 -110.26788712 54.03070068 C-110.27515209 50.59552216 -110.27279661 47.16040005 -110.26763153 43.72521973 C-110.26630783 42.09232555 -110.26789731 40.45942606 -110.27259064 38.82653809 C-110.32696668 14.59751324 -110.32696668 14.59751324 -102 5 C-100.05120202 3.36424423 -98.24445996 2.22910903 -96 1 C-95.34 1.33 -94.68 1.66 -94 2 C-94.72316406 2.77923828 -94.72316406 2.77923828 -95.4609375 3.57421875 C-96.09257813 4.27160156 -96.72421875 4.96898437 -97.375 5.6875 C-98.31472656 6.71423828 -98.31472656 6.71423828 -99.2734375 7.76171875 C-103.07609635 12.69140998 -103.29373257 17.40623518 -103.2746582 23.45874023 C-103.2823246 24.71821976 -103.2823246 24.71821976 -103.29014587 26.00314331 C-103.30401701 28.77169981 -103.30308702 31.54000669 -103.30078125 34.30859375 C-103.30466943 36.23763623 -103.30900436 38.16667786 -103.31376648 40.09571838 C-103.32122328 44.13651303 -103.32094123 48.17722029 -103.31567383 52.21801758 C-103.30987879 57.39085021 -103.32681369 62.56332484 -103.3500185 67.73609829 C-103.36476468 71.71928491 -103.36562635 75.70238548 -103.36250877 79.68559456 C-103.3630215 81.59253715 -103.36825015 83.49948461 -103.37832069 85.40640068 C-103.39068539 88.07512422 -103.38389339 90.74315245 -103.37231445 93.41186523 C-103.37995819 94.19595261 -103.38760193 94.98003998 -103.39547729 95.78788757 C-103.34197064 101.37977453 -102.22690552 105.58192162 -98.31640625 109.828125 C-97.73761719 110.29734375 -97.15882812 110.7665625 -96.5625 111.25 C-95.98628906 111.72953125 -95.41007812 112.2090625 -94.81640625 112.703125 C-90.23007081 115.97766987 -86.43606587 116.29261606 -80.87011719 116.2746582 C-80.05332993 116.27976913 -79.23654266 116.28488007 -78.39500427 116.29014587 C-75.69555321 116.30404173 -72.99635759 116.30308458 -70.296875 116.30078125 C-68.41603501 116.30466927 -66.53519589 116.30900416 -64.65435791 116.31376648 C-60.71013546 116.32122948 -56.76600251 116.32093763 -52.82177734 116.31567383 C-47.78026627 116.30989077 -42.73912396 116.32678164 -37.6976738 116.3500185 C-33.81133907 116.36479253 -29.92509228 116.36562235 -26.03873444 116.36250877 C-24.18089317 116.36302053 -22.32304679 116.36823075 -20.46523285 116.37832069 C-17.85906984 116.39073374 -15.25361366 116.38386365 -12.64746094 116.37231445 C-11.88769455 116.37995819 -11.12792816 116.38760193 -10.34513855 116.39547729 C-4.36107003 116.33721386 1.25432707 115.23682235 6.0234375 111.3515625 C6.46945313 110.78179687 6.91546875 110.21203125 7.375 109.625 C7.83648437 109.06039062 8.29796875 108.49578125 8.7734375 107.9140625 C11.92473148 102.99643813 12.2973214 98.48545637 12.29052734 92.7565918 C12.29724457 91.93965851 12.30396179 91.12272522 12.31088257 90.28103638 C12.32984117 87.58703485 12.3337858 84.89328279 12.3359375 82.19921875 C12.34236737 80.31980793 12.34909587 78.44039811 12.35610962 76.56098938 C12.36807736 72.62274862 12.371791 68.68459555 12.37060547 64.74633789 C12.37040241 59.7126127 12.39769289 54.67945294 12.43214989 49.64586163 C12.45444511 45.76381372 12.45844219 41.88190127 12.45738602 37.99979591 C12.45973847 36.14473334 12.46854188 34.28966683 12.48405075 32.43466759 C12.50376224 29.83324585 12.49785273 27.23303523 12.48583984 24.6315918 C12.49707886 23.87339645 12.50831787 23.11520111 12.51989746 22.33403015 C12.43837694 15.34733963 10.00239695 10.29543065 5.4375 5.0625 C3.1025193 2.82784495 3.1025193 2.82784495 0 2 C0 1.34 0 0.68 0 0 Z " fill="#1E181B" transform="translate(110,3)"/>
<path d="M0 0 C1.10961564 3.51191483 1.03443358 6.63334228 0.87890625 10.296875 C0.83056641 11.50214844 0.78222656 12.70742188 0.73242188 13.94921875 C0.67634766 15.20347656 0.62027344 16.45773438 0.5625 17.75 C0.51029297 19.01972656 0.45808594 20.28945313 0.40429688 21.59765625 C0.27468016 24.73202407 0.13971529 27.86606874 0 31 C1.13441528 31.21064087 1.13441528 31.21064087 2.29174805 31.42553711 C5.62884257 32.13338741 8.63997017 33.31271552 11.8125 34.5625 C12.97394531 35.01753906 14.13539062 35.47257812 15.33203125 35.94140625 C16.65267578 36.46541016 16.65267578 36.46541016 18 37 C18.33 36.01 18.66 35.02 19 34 C17.68 33.34 16.36 32.68 15 32 C16.98 32 18.96 32 21 32 C21 30.68 21 29.36 21 28 C20.34 27.67 19.68 27.34 19 27 C21.875 26.375 21.875 26.375 25 26 C25.66 26.66 26.32 27.32 27 28 C26.34 28.33 25.68 28.66 25 29 C25.185625 29.721875 25.37125 30.44375 25.5625 31.1875 C26.01995307 34.12826973 25.73516357 36.14103058 25 39 C25.66 39.33 26.32 39.66 27 40 C27 40.66 27 41.32 27 42 C27.66 42 28.32 42 29 42 C29.33 44.64 29.66 47.28 30 50 C30.66 50 31.32 50 32 50 C31.67 51.32 31.34 52.64 31 54 C31.99 54.33 32.98 54.66 34 55 C33.33333333 57.66666667 32.66666667 60.33333333 32 63 C33.32 62.34 34.64 61.68 36 61 C36 61.99 36 62.98 36 64 C36.99 64 37.98 64 39 64 C39 64.99 39 65.98 39 67 C39.66 66.67 40.32 66.34 41 66 C41 67.32 41 68.64 41 70 C42.32 68.68 43.64 67.36 45 66 C45.99 66.66 46.98 67.32 48 68 C48.495 66.515 48.495 66.515 49 65 C51.81256281 64.97315688 54.62487241 64.95323812 57.4375 64.9375 C58.64116211 64.92493164 58.64116211 64.92493164 59.86914062 64.91210938 C61.91295221 64.9034857 63.95683902 64.9477185 66 65 C66.33 65.33 66.66 65.66 67 66 C67.37125 65.566875 67.7425 65.13375 68.125 64.6875 C70.50679503 62.54388447 73.14173726 61.42913137 76 60 C77.01801357 59.01834406 78.0246803 58.02408568 79 57 C79.66 57 80.32 57 81 57 C81.20496094 56.38511719 81.40992187 55.77023438 81.62109375 55.13671875 C82.74739583 51.7578125 83.87369792 48.37890625 85 45 C85.99 45 86.98 45 88 45 C87.98839844 44.02417969 87.97679688 43.04835937 87.96484375 42.04296875 C87.95582031 40.77066406 87.94679688 39.49835937 87.9375 38.1875 C87.92589844 36.92292969 87.91429688 35.65835938 87.90234375 34.35546875 C88 31 88 31 89 28 C88.34 28 87.68 28 87 28 C87 27.34 87 26.68 87 26 C88.875 25.375 88.875 25.375 91 25 C91.99 25.99 91.99 25.99 93 27 C95.58354218 27.16687448 95.58354218 27.16687448 98 27 C98 27.66 98 28.32 98 29 C95.69 29.99 93.38 30.98 91 32 C93.97 32.33 96.94 32.66 100 33 C99.34 34.32 98.68 35.64 98 37 C98.89203125 36.566875 99.7840625 36.13375 100.703125 35.6875 C102.45882812 34.8521875 102.45882812 34.8521875 104.25 34 C105.41015625 33.443125 106.5703125 32.88625 107.765625 32.3125 C111 31 111 31 115 31 C115 22.09 115 13.18 115 4 C115.33 4 115.66 4 116 4 C116 32.05 116 60.1 116 89 C115.67 89 115.34 89 115 89 C114.67 77.78 114.34 66.56 114 55 C112.35 55 110.7 55 109 55 C109 54.34 109 53.68 109 53 C107.9171875 53.1546875 107.9171875 53.1546875 106.8125 53.3125 C102.88801947 52.87644661 101.61343531 50.82533547 99 48 C98.34 48 97.68 48 97 48 C97 47.34 97 46.68 97 46 C96.34 46 95.68 46 95 46 C95.495 48.475 95.495 48.475 96 51 C94.515 51.495 94.515 51.495 93 52 C92.505 52.99 92.505 52.99 92 54 C93.65 54.66 95.3 55.32 97 56 C94.39417629 56.93065133 93.35801776 57.14917407 90.75 56.0625 C89.88375 55.5365625 89.88375 55.5365625 89 55 C89 55.66 89 56.32 89 57 C90.95927063 58.7143618 92.95880212 60.38405168 95 62 C92.37886292 62 90.49064888 61.68707555 88 61 C87.67 62.98 87.34 64.96 87 67 C85.515 66.505 85.515 66.505 84 66 C83.5875 66.474375 83.175 66.94875 82.75 67.4375 C80.77711909 69.19900082 79.51598237 69.37100441 77 70 C75.26973898 71.47890069 75.26973898 71.47890069 74 73 C72.515 72.505 72.515 72.505 71 72 C70.01 72.495 70.01 72.495 69 73 C68.34 72.34 67.68 71.68 67 71 C66.34 71 65.68 71 65 71 C64.896875 71.61875 64.79375 72.2375 64.6875 72.875 C64 75 64 75 61 77 C60.505 78.485 60.505 78.485 60 80 C60.5775 79.649375 61.155 79.29875 61.75 78.9375 C64.35801776 77.85082593 65.39417629 78.06934867 68 79 C67.505 80.485 67.505 80.485 67 82 C66.34 82 65.68 82 65 82 C65 82.99 65 83.98 65 85 C66.98 85.99 66.98 85.99 69 87 C69 87.99 69 88.98 69 90 C68.34 90 67.68 90 67 90 C67 89.01 67 88.02 67 87 C66.01 87 65.02 87 64 87 C64 85.35 64 83.7 64 82 C62.35 81.67 60.7 81.34 59 81 C59 80.34 59 79.68 59 79 C58.34 79 57.68 79 57 79 C56.71125 79.804375 56.4225 80.60875 56.125 81.4375 C55 84 55 84 53 85 C54.33333333 81.66666667 55.66666667 78.33333333 57 75 C52.71 75 48.42 75 44 75 C43.505 76.98 43.505 76.98 43 79 C42.34 77.02 41.68 75.04 41 73 C40.01 73.495 40.01 73.495 39 74 C39 73.01 39 72.02 39 71 C37.02 71.99 37.02 71.99 35 73 C35.33 71.35 35.66 69.7 36 68 C35.38125 68.495 34.7625 68.99 34.125 69.5 C32 71 32 71 30 71 C29 68 29 68 28.625 65.9375 C28.09783064 63.6163052 28.09783064 63.6163052 25 62 C25.66 61.01 26.32 60.02 27 59 C26.236875 59.350625 25.47375 59.70125 24.6875 60.0625 C22 61 22 61 19 60 C24.75 55 24.75 55 27 55 C27 54.34 27 53.68 27 53 C25.9275 53.350625 24.855 53.70125 23.75 54.0625 C19.07692308 55.23076923 19.07692308 55.23076923 16 54 C16.66 54 17.32 54 18 54 C18.433125 52.88625 18.433125 52.88625 18.875 51.75 C19.82368263 49.43099801 20.86559779 47.23067324 22 45 C21.12988281 45.58007812 21.12988281 45.58007812 20.2421875 46.171875 C18.62289438 47.25140375 17.00170714 48.32809527 15.37890625 49.40234375 C13.49651894 50.66654146 11.64786789 51.98095859 9.8125 53.3125 C7 55 7 55 1 56 C0.67 67.22 0.34 78.44 0 90 C-0.33 90 -0.66 90 -1 90 C-1.02314654 78.70842517 -1.04092692 67.41685596 -1.05181217 56.12526226 C-1.05703592 50.88240917 -1.0641244 45.63957228 -1.07543945 40.39672852 C-1.08628631 35.33930616 -1.09228067 30.28189941 -1.09487724 25.22446632 C-1.09672824 23.2927202 -1.10034264 21.36097496 -1.10573006 19.42923546 C-1.1129643 16.72843946 -1.11398993 14.02770839 -1.11352539 11.3269043 C-1.11712067 10.52417587 -1.12071594 9.72144745 -1.12442017 8.89439392 C-1.11838796 5.6640487 -1.02911701 3.08735103 0 0 Z " fill="#7B9BA6" transform="translate(7,15)"/>
<path d="M0 0 C0.88953369 0.03915527 1.77906738 0.07831055 2.69555664 0.11865234 C8.54328605 0.42789302 8.54328605 0.42789302 10.8125 1.5625 C11.8025 1.8925 12.7925 2.2225 13.8125 2.5625 C18.53713474 5.8825136 23.19976983 10.33703966 25.8125 15.5625 C25.89823394 17.81370742 25.91962188 20.06749303 25.91015625 22.3203125 C25.9087413 22.98336395 25.90732635 23.64641541 25.90586853 24.32955933 C25.90026754 26.44891863 25.887715 28.56817259 25.875 30.6875 C25.86998512 32.12369639 25.86542219 33.55989444 25.86132812 34.99609375 C25.85029782 38.51826345 25.83303259 42.04037145 25.8125 45.5625 C23.73030951 46.37792431 21.64670239 47.18973189 19.5625 48 C18.40234375 48.45246094 17.2421875 48.90492187 16.046875 49.37109375 C13.62283692 50.26400633 11.32963525 51.02044365 8.8125 51.5625 C9.1425 50.5725 9.4725 49.5825 9.8125 48.5625 C6.8425 48.2325 3.8725 47.9025 0.8125 47.5625 C2.8125 44.5625 2.8125 44.5625 5.9375 43.875 C6.88625 43.771875 7.835 43.66875 8.8125 43.5625 C7.6678125 43.376875 7.6678125 43.376875 6.5 43.1875 C3.8125 42.5625 3.8125 42.5625 0.8125 40.5625 C1.3075 39.5725 1.3075 39.5725 1.8125 38.5625 C-0.1675 38.0675 -0.1675 38.0675 -2.1875 37.5625 C-1.875 35.6875 -1.875 35.6875 -1.1875 33.5625 C-0.1975 32.9025 0.7925 32.2425 1.8125 31.5625 C0.8225 30.9025 -0.1675 30.2425 -1.1875 29.5625 C-0.1975 27.0875 -0.1975 27.0875 0.8125 24.5625 C-0.6725 24.0675 -0.6725 24.0675 -2.1875 23.5625 C-1.1975 22.2425 -0.2075 20.9225 0.8125 19.5625 C0.27625 19.85125 -0.26 20.14 -0.8125 20.4375 C-3.54030484 21.72961808 -6.31362718 22.64808592 -9.1875 23.5625 C-8.70171457 20.43959365 -8.1888988 17.56669641 -7.1875 14.5625 C-7.64125 15.2225 -8.095 15.8825 -8.5625 16.5625 C-9.09875 17.2225 -9.635 17.8825 -10.1875 18.5625 C-10.8475 18.5625 -11.5075 18.5625 -12.1875 18.5625 C-11.878125 17.799375 -11.56875 17.03625 -11.25 16.25 C-10.50856407 14.37460323 -9.82521783 12.47565348 -9.1875 10.5625 C-11.95750825 13.88336771 -11.95750825 13.88336771 -14.1875 17.5625 C-14.8475 17.5625 -15.5075 17.5625 -16.1875 17.5625 C-15.44215483 12.79229089 -13.97245892 9.32239046 -12.1875 4.5625 C-33.9675 4.5625 -55.7475 4.5625 -78.1875 4.5625 C-77.1975 3.9025 -76.2075 3.2425 -75.1875 2.5625 C-74.5275 1.9025 -73.8675 1.2425 -73.1875 0.5625 C-70.05660854 0.23227662 -67.01653577 0.04067829 -63.875 -0.0625 C-62.88314697 -0.09972168 -61.89129395 -0.13694336 -60.86938477 -0.17529297 C-40.61736544 -0.83352531 -20.24439391 -0.89346477 0 0 Z " fill="#98B6D9" transform="translate(96.1875,0.4375)"/>
<path d="M0 0 C27.06 0 54.12 0 82 0 C82 0.33 82 0.66 82 1 C71.605 1.495 71.605 1.495 61 2 C59.68 5.96 58.36 9.92 57 14 C57.66 14 58.32 14 59 14 C59.268125 13.236875 59.53625 12.47375 59.8125 11.6875 C60.94424112 9.12619116 61.91223401 7.80307062 64 6 C64.99 6.495 64.99 6.495 66 7 C64.35 9.64 62.7 12.28 61 15 C62.65 13.35 64.3 11.7 66 10 C66.99 10.495 66.99 10.495 68 11 C67.525625 11.7425 67.05125 12.485 66.5625 13.25 C65.22130673 15.61050015 64.487688 17.36648477 64 20 C64.9075 19.54625 65.815 19.0925 66.75 18.625 C69.83333333 17.08333333 72.91666667 15.54166667 76 14 C74.84826645 16.46800047 73.95216435 18.04783565 72 20 C72.99 20 73.98 20 75 20 C74.34 21.98 73.68 23.96 73 26 C74.485 26.495 74.485 26.495 76 27 C75.505 28.485 75.505 28.485 75 30 C73.515 30.495 73.515 30.495 72 31 C72 31.99 72 32.98 72 34 C73.485 34.99 73.485 34.99 75 36 C73.68 36.33 72.36 36.66 71 37 C71 37.66 71 38.32 71 39 C71.66 39 72.32 39 73 39 C72.67 44.61 72.34 50.22 72 56 C71.01 56 70.02 56 69 56 C68.86722656 56.57234375 68.73445313 57.1446875 68.59765625 57.734375 C68.00619683 59.97650875 67.26711146 62.08579619 66.4375 64.25 C66.16808594 64.95640625 65.89867188 65.6628125 65.62109375 66.390625 C65.41613281 66.92171875 65.21117188 67.4528125 65 68 C64.34 68 63.68 68 63 68 C62.67 68.66 62.34 69.32 62 70 C58.75395419 72.97554199 56.40147657 74.49697411 52 75 C51.505 76.98 51.505 76.98 51 79 C50.67 78.34 50.34 77.68 50 77 C44.39 76.67 38.78 76.34 33 76 C32.505 77.98 32.505 77.98 32 80 C30.68 79.34 29.36 78.68 28 78 C26.68 79.32 25.36 80.64 24 82 C24 80.68 24 79.36 24 78 C23.01 78.495 23.01 78.495 22 79 C21.67 77.68 21.34 76.36 21 75 C20.01 75.495 20.01 75.495 19 76 C19 75.01 19 74.02 19 73 C17.515 73.495 17.515 73.495 16 74 C16 71.33333333 16 68.66666667 16 66 C15.34 65.67 14.68 65.34 14 65 C14.66 63.68 15.32 62.36 16 61 C15.34 61 14.68 61 14 61 C12.64560332 58.29120665 12.93498549 55.99066732 13 53 C12.34 53 11.68 53 11 53 C10.67 51.02 10.34 49.04 10 47 C10.66 47 11.32 47 12 47 C12 42.05 12 37.1 12 32 C12.66 32 13.32 32 14 32 C14.33 30.35 14.66 28.7 15 27 C15.99 27.33 16.98 27.66 18 28 C18.59130428 25.34065953 18.59130428 25.34065953 18 22 C16.36027004 19.72960466 14.56675246 17.75443287 12.62890625 15.734375 C11 14 11 14 10 12 C12 13 14 14 16 15 C16.33 13.68 16.66 12.36 17 11 C18.32 11.33 19.64 11.66 21 12 C20.67 10.68 20.34 9.36 20 8 C20.99 7.34 21.98 6.68 23 6 C24.2065625 7.2375 24.2065625 7.2375 25.4375 8.5 C27.52263018 11.11638731 27.52263018 11.11638731 29 11 C29.33 10.01 29.66 9.02 30 8 C30.66 9.65 31.32 11.3 32 13 C32.66 12.67 33.32 12.34 34 12 C34 9.03 34 6.06 34 3 C34.99 3 35.98 3 37 3 C37.495 5.97 37.495 5.97 38 9 C40.24362573 9.2284549 40.24362573 9.2284549 42.125 7 C42.74375 6.34 43.3625 5.68 44 5 C44 6.32 44 7.64 44 9 C44.66 9 45.32 9 46 9 C45.95875 8.236875 45.9175 7.47375 45.875 6.6875 C46 4 46 4 48 1 C32.16 1 16.32 1 0 1 C0 0.67 0 0.34 0 0 Z M26 23 C25.39027344 23.42410156 24.78054687 23.84820313 24.15234375 24.28515625 C18.07206219 28.91959591 14.53399266 34.11641701 13.484375 41.75 C12.92979733 50.60943141 14.26207177 57.95959727 20 65 C26.25838014 71.15797832 32.36133602 74.26553369 41.25 74.375 C49.40007694 74.21719669 55.82617896 72.35028558 61.875 66.75 C67.16343464 60.96265644 70.28272508 54.13082702 70.15234375 46.25 C69.66176807 39.00457458 68.04078067 32.72260897 62.51171875 27.62890625 C61.03115147 26.39081401 59.51648466 25.19382835 58 24 C57.46375 23.443125 56.9275 22.88625 56.375 22.3125 C51.86617177 18.00861851 46.27414344 18.61089452 40.43212891 18.63427734 C34.769181 18.76625539 30.57658731 19.47701552 26 23 Z " fill="#C6C7BB" transform="translate(23,4)"/>
<path d="M0 0 C1.10961564 3.51191483 1.03443358 6.63334228 0.87890625 10.296875 C0.83056641 11.50214844 0.78222656 12.70742188 0.73242188 13.94921875 C0.67634766 15.20347656 0.62027344 16.45773438 0.5625 17.75 C0.51029297 19.01972656 0.45808594 20.28945313 0.40429688 21.59765625 C0.27468016 24.73202407 0.13971529 27.86606874 0 31 C1.13441528 31.21064087 1.13441528 31.21064087 2.29174805 31.42553711 C5.62884257 32.13338741 8.63997017 33.31271552 11.8125 34.5625 C12.97394531 35.01753906 14.13539062 35.47257812 15.33203125 35.94140625 C16.65267578 36.46541016 16.65267578 36.46541016 18 37 C18.33 36.01 18.66 35.02 19 34 C17.68 33.34 16.36 32.68 15 32 C16.98 32 18.96 32 21 32 C21 30.68 21 29.36 21 28 C20.34 27.67 19.68 27.34 19 27 C21.875 26.375 21.875 26.375 25 26 C25.66 26.66 26.32 27.32 27 28 C26.34 28.33 25.68 28.66 25 29 C25.185625 29.721875 25.37125 30.44375 25.5625 31.1875 C26.01995307 34.12826973 25.73516357 36.14103058 25 39 C25.66 39.33 26.32 39.66 27 40 C27 40.66 27 41.32 27 42 C27.66 42 28.32 42 29 42 C29.33 44.64 29.66 47.28 30 50 C30.66 50 31.32 50 32 50 C31.67 51.32 31.34 52.64 31 54 C31.99 54.33 32.98 54.66 34 55 C33.33333333 57.66666667 32.66666667 60.33333333 32 63 C33.32 62.34 34.64 61.68 36 61 C36 61.99 36 62.98 36 64 C36.99 64 37.98 64 39 64 C39 64.99 39 65.98 39 67 C39.66 66.67 40.32 66.34 41 66 C41 67.32 41 68.64 41 70 C42.32 68.68 43.64 67.36 45 66 C45.99 66.66 46.98 67.32 48 68 C48.495 66.515 48.495 66.515 49 65 C49.66 65 50.32 65 51 65 C51.33 66.32 51.66 67.64 52 69 C52.66 69 53.32 69 54 69 C54.33 69.66 54.66 70.32 55 71 C56.32 71 57.64 71 59 71 C60.34164079 71.2981424 61.67851173 71.62243192 63 72 C62.37240135 74.92879371 61.41377341 77.36095629 60 80 C60.5775 79.649375 61.155 79.29875 61.75 78.9375 C64.35801776 77.85082593 65.39417629 78.06934867 68 79 C67.505 80.485 67.505 80.485 67 82 C66.34 82 65.68 82 65 82 C65 82.99 65 83.98 65 85 C66.98 85.99 66.98 85.99 69 87 C69 87.99 69 88.98 69 90 C68.34 90 67.68 90 67 90 C67 89.01 67 88.02 67 87 C66.01 87 65.02 87 64 87 C64 85.35 64 83.7 64 82 C62.35 81.67 60.7 81.34 59 81 C59 80.34 59 79.68 59 79 C58.34 79 57.68 79 57 79 C56.71125 79.804375 56.4225 80.60875 56.125 81.4375 C55 84 55 84 53 85 C54.33333333 81.66666667 55.66666667 78.33333333 57 75 C52.71 75 48.42 75 44 75 C43.505 76.98 43.505 76.98 43 79 C42.34 77.02 41.68 75.04 41 73 C40.01 73.495 40.01 73.495 39 74 C39 73.01 39 72.02 39 71 C37.02 71.99 37.02 71.99 35 73 C35.33 71.35 35.66 69.7 36 68 C35.38125 68.495 34.7625 68.99 34.125 69.5 C32 71 32 71 30 71 C29 68 29 68 28.625 65.9375 C28.09783064 63.6163052 28.09783064 63.6163052 25 62 C25.66 61.01 26.32 60.02 27 59 C26.236875 59.350625 25.47375 59.70125 24.6875 60.0625 C22 61 22 61 19 60 C24.75 55 24.75 55 27 55 C27 54.34 27 53.68 27 53 C25.9275 53.350625 24.855 53.70125 23.75 54.0625 C19.07692308 55.23076923 19.07692308 55.23076923 16 54 C16.66 54 17.32 54 18 54 C18.433125 52.88625 18.433125 52.88625 18.875 51.75 C19.82368263 49.43099801 20.86559779 47.23067324 22 45 C21.12988281 45.58007812 21.12988281 45.58007812 20.2421875 46.171875 C18.62289438 47.25140375 17.00170714 48.32809527 15.37890625 49.40234375 C13.49651894 50.66654146 11.64786789 51.98095859 9.8125 53.3125 C7 55 7 55 1 56 C0.67 67.22 0.34 78.44 0 90 C-0.33 90 -0.66 90 -1 90 C-1.02314654 78.70842517 -1.04092692 67.41685596 -1.05181217 56.12526226 C-1.05703592 50.88240917 -1.0641244 45.63957228 -1.07543945 40.39672852 C-1.08628631 35.33930616 -1.09228067 30.28189941 -1.09487724 25.22446632 C-1.09672824 23.2927202 -1.10034264 21.36097496 -1.10573006 19.42923546 C-1.1129643 16.72843946 -1.11398993 14.02770839 -1.11352539 11.3269043 C-1.11712067 10.52417587 -1.12071594 9.72144745 -1.12442017 8.89439392 C-1.11838796 5.6640487 -1.02911701 3.08735103 0 0 Z " fill="#678EB0" transform="translate(7,15)"/>
<path d="M0 0 C4.1400278 0.53301945 6.41439034 1.71643826 9.5625 4.4375 C10.67818359 5.36369141 10.67818359 5.36369141 11.81640625 6.30859375 C19.49602715 15.774173 18.58949608 26.90222368 18.53125 38.4375 C18.53394947 40.3273946 18.53783566 42.21728785 18.54284668 44.10717773 C18.54872033 48.05433468 18.54024791 52.00112778 18.52148438 55.94824219 C18.49869615 60.98505115 18.51183073 66.02100729 18.53577423 71.05778503 C18.55029011 74.95624106 18.54559978 78.85449788 18.53526306 82.75296021 C18.53261175 84.60914208 18.5358088 86.46534258 18.54518127 88.32150269 C18.6307998 110.03904247 18.6307998 110.03904247 10.6875 118.9375 C4.97244665 124.56952594 -1.44489439 125.44846157 -9.08129883 125.43579102 C-10.40473045 125.45090477 -10.40473045 125.45090477 -11.75489807 125.46632385 C-14.65573999 125.4946924 -17.55605947 125.50067484 -20.45703125 125.50390625 C-22.48573516 125.51355529 -24.514437 125.52364835 -26.5431366 125.53416443 C-30.79060706 125.55209821 -35.03789476 125.55768831 -39.28540039 125.5559082 C-44.70923348 125.55560357 -50.13188631 125.59655066 -55.55543995 125.64822483 C-59.74469815 125.68169796 -63.93367439 125.68766242 -68.1230526 125.68607903 C-70.12162022 125.68960274 -72.12019642 125.70277984 -74.11863136 125.72607613 C-94.67812364 125.94330769 -94.67812364 125.94330769 -102 119 C-111.10521985 108.5142473 -110.30350553 95.92927289 -110.265625 82.75 C-110.26697529 81.08430932 -110.26891884 79.41861903 -110.27142334 77.75292969 C-110.2743575 74.27665421 -110.27013232 70.80048212 -110.26074219 67.32421875 C-110.24934869 62.89296231 -110.25591737 58.46194825 -110.26788712 54.03070068 C-110.27515209 50.59552216 -110.27279661 47.16040005 -110.26763153 43.72521973 C-110.26630783 42.09232555 -110.26789731 40.45942606 -110.27259064 38.82653809 C-110.32696668 14.59751324 -110.32696668 14.59751324 -102 5 C-100.05120202 3.36424423 -98.24445996 2.22910903 -96 1 C-95.34 1.33 -94.68 1.66 -94 2 C-94.72316406 2.77923828 -94.72316406 2.77923828 -95.4609375 3.57421875 C-96.09257813 4.27160156 -96.72421875 4.96898437 -97.375 5.6875 C-98.31472656 6.71423828 -98.31472656 6.71423828 -99.2734375 7.76171875 C-103.08987654 12.70927434 -103.30235466 17.48003304 -103.31884766 23.55395508 C-103.32889328 24.40324585 -103.3389389 25.25253662 -103.34928894 26.12756348 C-103.38009252 28.92487941 -103.39714823 31.72209975 -103.4140625 34.51953125 C-103.43277642 36.46295492 -103.45235 38.40637049 -103.4727478 40.34977722 C-103.52405133 45.45754211 -103.56368664 50.56533333 -103.60089111 55.67321777 C-103.64094185 60.88833116 -103.69202934 66.10333514 -103.7421875 71.31835938 C-103.83892576 81.54549605 -103.92333734 91.77269452 -104 102 C-104.33 102 -104.66 102 -105 102 C-105.33 74.28 -105.66 46.56 -106 18 C-106.72052993 23.04370949 -107.13016019 27.40121051 -107.14526367 32.42895508 C-107.14862228 33.13567856 -107.1519809 33.84240204 -107.15544128 34.57054138 C-107.1648728 36.88688965 -107.16689047 39.20316502 -107.16796875 41.51953125 C-107.17118685 43.14466887 -107.17455133 44.76980621 -107.17805481 46.39494324 C-107.18402666 49.79495922 -107.18589672 53.19494985 -107.18530273 56.5949707 C-107.18520125 60.92877009 -107.19884832 65.26240515 -107.21607494 69.59616566 C-107.22725214 72.95156078 -107.22922019 76.3069169 -107.22869301 79.66232872 C-107.22986471 81.25894423 -107.23424044 82.85556102 -107.24202538 84.45215797 C-107.56458339 101.83486822 -107.56458339 101.83486822 -100 117 C-93.73127757 122.06832877 -87.67225747 123.30010454 -79.76660156 123.29052734 C-78.56043182 123.30060318 -78.56043182 123.30060318 -77.32989502 123.31088257 C-74.683408 123.32980948 -72.0371754 123.33378433 -69.390625 123.3359375 C-67.53985492 123.34237003 -65.68908585 123.34909873 -63.83831787 123.35610962 C-59.96152389 123.36806979 -56.08481893 123.37179183 -52.20800781 123.37060547 C-47.26082127 123.37040257 -42.31421101 123.39768075 -37.3671608 123.43214989 C-33.54422428 123.45448273 -29.72142492 123.45844103 -25.89842987 123.45738602 C-24.07572193 123.45973329 -22.2530097 123.46850714 -20.43036652 123.48405075 C-5.07367971 123.74104831 -5.07367971 123.74104831 8.4375 117.0703125 C8.953125 116.42835937 9.46875 115.78640625 10 115.125 C10.53625 114.48820312 11.0725 113.85140625 11.625 113.1953125 C14.96900199 107.85630932 15.28355958 102.57451612 15.22705078 96.42431641 C15.22734283 95.58463318 15.22763489 94.74494995 15.22793579 93.87982178 C15.22654886 91.12029479 15.21101773 88.36104199 15.1953125 85.6015625 C15.19158011 83.68199816 15.1887342 81.76243192 15.18673706 79.84286499 C15.17911844 74.80241593 15.15948516 69.76208301 15.1373291 64.72167969 C15.11322576 58.6676829 15.10408126 52.61364718 15.09242249 46.55961609 C15.07305974 37.37299674 15.03472477 28.18663198 15 19 C14.67 46.06 14.34 73.12 14 101 C13.67 101 13.34 101 13 101 C12.99453156 99.42931763 12.99453156 99.42931763 12.98895264 97.8269043 C12.95194886 87.93996284 12.89411735 78.05333129 12.81609726 68.16662598 C12.77665374 63.08421572 12.74444988 58.00197793 12.72900391 52.91943359 C12.71381681 48.01089 12.67933466 43.10282061 12.63169098 38.19448853 C12.61689837 36.32553234 12.60896021 34.45650844 12.60811615 32.5874939 C12.60573833 29.96146588 12.57859416 27.33673973 12.54589844 24.7109375 C12.55344398 23.56186165 12.55344398 23.56186165 12.56114197 22.38957214 C12.42696817 15.38616616 10.01842099 10.31379967 5.4375 5.0625 C3.1025193 2.82784495 3.1025193 2.82784495 0 2 C0 1.34 0 0.68 0 0 Z " fill="#040100" transform="translate(110,3)"/>
<path d="M0 0 C0.73798828 -0.01611328 1.47597656 -0.03222656 2.23632812 -0.04882812 C8.38511429 -0.05429371 12.47341073 1.42722431 17.125 5.625 C17.929375 6.511875 18.73375 7.39875 19.5625 8.3125 C20.23152344 9.04533203 20.23152344 9.04533203 20.9140625 9.79296875 C25.38665463 14.88021536 26.87647422 18.56205418 26.5625 25.3125 C25.9025 25.3125 25.2425 25.3125 24.5625 25.3125 C23.5725 23.0025 22.5825 20.6925 21.5625 18.3125 C7.3725 18.3125 -6.8175 18.3125 -21.4375 18.3125 C-23.9125 22.7675 -23.9125 22.7675 -26.4375 27.3125 C-27.0975 27.3125 -27.7575 27.3125 -28.4375 27.3125 C-29.26799531 19.83804218 -27.09596872 15.15935359 -22.4375 9.3125 C-15.45762876 2.66325424 -9.54318511 -0.04145606 0 0 Z " fill="#FABB45" transform="translate(65.4375,22.6875)"/>
<path d="M0 0 C1.65 1.32 3.3 2.64 5 4 C5 3.34 5 2.68 5 2 C6.65 2 8.3 2 10 2 C10.33 1.34 10.66 0.68 11 0 C13.6877438 0.14209669 16.37513302 0.2885723 19.0625 0.4375 C19.81466797 0.47681641 20.56683594 0.51613281 21.34179688 0.55664062 C25.94698741 0.81580719 30.44366724 1.2799421 35 2 C35 2.66 35 3.32 35 4 C35.99 3.67 36.98 3.34 38 3 C38 3.99 38 4.98 38 6 C39.98 5.67 41.96 5.34 44 5 C43.67 6.98 43.34 8.96 43 11 C44.32 10.34 45.64 9.68 47 9 C47 11.64 47 14.28 47 17 C47.66 17 48.32 17 49 17 C49 17.66 49 18.32 49 19 C50.32 19.33 51.64 19.66 53 20 C51.68 20.33 50.36 20.66 49 21 C49 21.66 49 22.32 49 23 C49.66 23 50.32 23 51 23 C50.67 28.61 50.34 34.22 50 40 C49.01 40 48.02 40 47 40 C46.86722656 40.57234375 46.73445313 41.1446875 46.59765625 41.734375 C46.00619683 43.97650875 45.26711146 46.08579619 44.4375 48.25 C44.16808594 48.95640625 43.89867187 49.6628125 43.62109375 50.390625 C43.41613281 50.92171875 43.21117187 51.4528125 43 52 C42.34 52 41.68 52 41 52 C40.505 52.99 40.505 52.99 40 54 C36.75395419 56.97554199 34.40147657 58.49697411 30 59 C29.67 60.32 29.34 61.64 29 63 C28.67 62.34 28.34 61.68 28 61 C22.39 60.67 16.78 60.34 11 60 C10.67 61.32 10.34 62.64 10 64 C8.68 63.34 7.36 62.68 6 62 C4.68 63.32 3.36 64.64 2 66 C2 64.68 2 63.36 2 62 C1.01 62.495 1.01 62.495 0 63 C-0.33 61.68 -0.66 60.36 -1 59 C-1.99 59.495 -1.99 59.495 -3 60 C-3 59.01 -3 58.02 -3 57 C-4.485 57.495 -4.485 57.495 -6 58 C-6 55.33333333 -6 52.66666667 -6 50 C-6.66 49.67 -7.32 49.34 -8 49 C-7.34 47.68 -6.68 46.36 -6 45 C-6.66 45 -7.32 45 -8 45 C-9.35439668 42.29120665 -9.06501451 39.99066732 -9 37 C-9.66 37 -10.32 37 -11 37 C-11.33 35.02 -11.66 33.04 -12 31 C-11.34 31 -10.68 31 -10 31 C-10 26.05 -10 21.1 -10 16 C-9.34 16 -8.68 16 -8 16 C-7.67 14.35 -7.34 12.7 -7 11 C-6.01 11.33 -5.02 11.66 -4 12 C-3.92572162 8.65747276 -3.93453047 6.1964086 -5 3 C-3.35 2.67 -1.7 2.34 0 2 C0 1.34 0 0.68 0 0 Z M4 7 C3.39027344 7.42410156 2.78054687 7.84820313 2.15234375 8.28515625 C-3.92793781 12.91959591 -7.46600734 18.11641701 -8.515625 25.75 C-9.07020267 34.60943141 -7.73792823 41.95959727 -2 49 C4.25838014 55.15797832 10.36133602 58.26553369 19.25 58.375 C27.40007694 58.21719669 33.82617896 56.35028558 39.875 50.75 C45.16343464 44.96265644 48.28272508 38.13082702 48.15234375 30.25 C47.66176807 23.00457458 46.04078067 16.72260897 40.51171875 11.62890625 C39.03115147 10.39081401 37.51648466 9.19382835 36 8 C35.46375 7.443125 34.9275 6.88625 34.375 6.3125 C29.86617177 2.00861851 24.27414344 2.61089452 18.43212891 2.63427734 C12.769181 2.76625539 8.57658731 3.47701552 4 7 Z " fill="#C3B991" transform="translate(45,20)"/>
<path d="M0 0 C0.33 0 0.66 0 1 0 C1 28.05 1 56.1 1 85 C0.67 85 0.34 85 0 85 C-0.33 73.78 -0.66 62.56 -1 51 C-2.65 51 -4.3 51 -6 51 C-6 50.34 -6 49.68 -6 49 C-7.0828125 49.1546875 -7.0828125 49.1546875 -8.1875 49.3125 C-12.11198053 48.87644661 -13.38656469 46.82533547 -16 44 C-16.66 44 -17.32 44 -18 44 C-18.33 42.35 -18.66 40.7 -19 39 C-20.65 39 -22.3 39 -24 39 C-24 38.01 -24 37.02 -24 36 C-21.05990753 34.47115192 -18.05434561 33.14689632 -15 31.86328125 C-13.55213713 31.23832482 -12.11585722 30.58630481 -10.6875 29.91796875 C-9.90375 29.55316406 -9.12 29.18835938 -8.3125 28.8125 C-7.58675781 28.46832031 -6.86101562 28.12414062 -6.11328125 27.76953125 C-4 27 -4 27 0 27 C0 18.09 0 9.18 0 0 Z " fill="#0578BC" transform="translate(122,19)"/>
<path d="M0 0 C1.10961564 3.51191483 1.03443358 6.63334228 0.87890625 10.296875 C0.83056641 11.50214844 0.78222656 12.70742188 0.73242188 13.94921875 C0.67634766 15.20347656 0.62027344 16.45773438 0.5625 17.75 C0.51029297 19.01972656 0.45808594 20.28945313 0.40429688 21.59765625 C0.27468016 24.73202407 0.13971529 27.86606874 0 31 C0.75700195 31.14260254 1.51400391 31.28520508 2.29394531 31.43212891 C5.58285095 32.12231246 8.60225936 33.19993845 11.75 34.375 C12.89984375 34.79523437 14.0496875 35.21546875 15.234375 35.6484375 C16.60335938 36.31746094 16.60335938 36.31746094 18 37 C18.33 37.99 18.66 38.98 19 40 C18.01 40.495 18.01 40.495 17 41 C17.66 41.33 18.32 41.66 19 42 C18.91740329 44.80828805 18.44224482 46.52400492 16.515625 48.59765625 C11.33547781 53.10261331 7.94740042 54.84209993 1 56 C0.67 67.22 0.34 78.44 0 90 C-0.33 90 -0.66 90 -1 90 C-1.02314654 78.70842517 -1.04092692 67.41685596 -1.05181217 56.12526226 C-1.05703592 50.88240917 -1.0641244 45.63957228 -1.07543945 40.39672852 C-1.08628631 35.33930616 -1.09228067 30.28189941 -1.09487724 25.22446632 C-1.09672824 23.2927202 -1.10034264 21.36097496 -1.10573006 19.42923546 C-1.1129643 16.72843946 -1.11398993 14.02770839 -1.11352539 11.3269043 C-1.11712067 10.52417587 -1.12071594 9.72144745 -1.12442017 8.89439392 C-1.11838796 5.6640487 -1.02911701 3.08735103 0 0 Z " fill="#0E79BA" transform="translate(7,15)"/>
<path d="M0 0 C3 1 3 1 4.54296875 3.73046875 C5.08566406 4.87128906 5.62835938 6.01210938 6.1875 7.1875 C9.71041974 14.16403926 13.55533551 18.25496757 20.85546875 21.12109375 C28.7403252 23.32493562 37.22461798 22.85246326 44.69921875 19.48828125 C48.92804386 16.75282731 51.96359835 12.96937422 55 9 C56.1171875 12.71875 56.1171875 12.71875 55.0625 15.25 C54.5365625 16.11625 54.5365625 16.11625 54 17 C53.34 17 52.68 17 52 17 C51.67 17.66 51.34 18.32 51 19 C47.75395419 21.97554199 45.40147657 23.49697411 41 24 C40.67 25.32 40.34 26.64 40 28 C39.505 27.01 39.505 27.01 39 26 C33.39 25.67 27.78 25.34 22 25 C21.67 26.32 21.34 27.64 21 29 C19.68 28.34 18.36 27.68 17 27 C15.68 28.32 14.36 29.64 13 31 C13 29.68 13 28.36 13 27 C12.34 27.33 11.68 27.66 11 28 C10.67 26.68 10.34 25.36 10 24 C9.34 24.33 8.68 24.66 8 25 C8 24.01 8 23.02 8 22 C7.01 22.33 6.02 22.66 5 23 C5 20.33333333 5 17.66666667 5 15 C4.34 14.67 3.68 14.34 3 14 C3.66 12.68 4.32 11.36 5 10 C4.34 10 3.68 10 3 10 C1.64560332 7.29120665 1.93498549 4.99066732 2 2 C1.34 2 0.68 2 0 2 C0 1.34 0 0.68 0 0 Z " fill="#949C94" transform="translate(34,55)"/>
<path d="M0 0 C0.73798828 -0.01611328 1.47597656 -0.03222656 2.23632812 -0.04882812 C8.38511429 -0.05429371 12.47341073 1.42722431 17.125 5.625 C17.929375 6.511875 18.73375 7.39875 19.5625 8.3125 C20.23152344 9.04533203 20.23152344 9.04533203 20.9140625 9.79296875 C25.38665463 14.88021536 26.87647422 18.56205418 26.5625 25.3125 C25.9025 25.3125 25.2425 25.3125 24.5625 25.3125 C24.28277344 24.51585938 24.00304687 23.71921875 23.71484375 22.8984375 C21.23674644 16.34861116 18.97179866 10.74799271 12.5625 7.3125 C7.86927575 5.92606128 2.97948991 6.09239678 -1.875 6.0625 C-3.12506836 6.0315625 -3.12506836 6.0315625 -4.40039062 6 C-9.49613125 5.96777397 -13.05810201 6.4130829 -17.4375 9.3125 C-18.82367389 11.27624635 -20.16762031 13.27162192 -21.4375 15.3125 C-22.0975 15.3125 -22.7575 15.3125 -23.4375 15.3125 C-24.4275 18.2825 -25.4175 21.2525 -26.4375 24.3125 C-26.7675 24.3125 -27.0975 24.3125 -27.4375 24.3125 C-28.18943331 18.42235572 -26.73718643 15.24318261 -23.28515625 10.4609375 C-16.76144369 2.87522523 -9.81185936 -0.04262319 0 0 Z " fill="#FEEACA" transform="translate(65.4375,22.6875)"/>
<path d="M0 0 C0.825 -0.00773437 1.65 -0.01546875 2.5 -0.0234375 C8.39976016 -0.0047081 14.00770232 0.20970798 18.83984375 3.9765625 C19.40832031 4.60304688 19.97679687 5.22953125 20.5625 5.875 C21.44228516 6.82246094 21.44228516 6.82246094 22.33984375 7.7890625 C22.97599609 8.51222656 22.97599609 8.51222656 23.625 9.25 C23.295 9.91 22.965 10.57 22.625 11.25 C22.20897018 10.76391769 21.79294037 10.27783539 21.36430359 9.77702332 C18.43936801 7.20907322 14.73744537 7.76740545 11.01953125 7.73828125 C10.18032639 7.72033005 9.34112152 7.70237885 8.47648621 7.68388367 C5.79687521 7.62971437 3.11744298 7.59586427 0.4375 7.5625 C-1.37958221 7.52933271 -3.1966408 7.4948436 -5.01367188 7.45898438 C-9.46731905 7.37398428 -13.92091259 7.30720498 -18.375 7.25 C-12.929951 0.18669213 -8.50816463 -0.0790232 0 0 Z " fill="#FDD797" transform="translate(63.375,27.75)"/>
<path d="M0 0 C0.33 0 0.66 0 1 0 C1 28.05 1 56.1 1 85 C0.67 85 0.34 85 0 85 C-0.33 73.78 -0.66 62.56 -1 51 C-2.65 51 -4.3 51 -6 51 C-6 50.34 -6 49.68 -6 49 C-7.0828125 49.1546875 -7.0828125 49.1546875 -8.1875 49.3125 C-12.11198053 48.87644661 -13.38656469 46.82533547 -16 44 C-16.66 44 -17.32 44 -18 44 C-18.33 42.35 -18.66 40.7 -19 39 C-20.65 39 -22.3 39 -24 39 C-24 38.01 -24 37.02 -24 36 C-20.25 34 -20.25 34 -18 34 C-14 39.41176471 -14 39.41176471 -14 42 C-13.34 42 -12.68 42 -12 42 C-12 42.66 -12 43.32 -12 44 C-8.04 44.33 -4.08 44.66 0 45 C0 30.15 0 15.3 0 0 Z " fill="#397CAE" transform="translate(122,19)"/>
<path d="M0 0 C1.15227006 2.30454012 1.04013973 3.64877738 0.75 6.1875 C0.5025 6.785625 0.255 7.38375 0 8 C-0.99 8.33 -1.98 8.66 -3 9 C-5.42794873 12.41225226 -5.32699235 15.91701949 -5.5 20 C-5.81690141 27.47887324 -5.81690141 27.47887324 -8 31 C-8.66 30.67 -9.32 30.34 -10 30 C-9.67 29.34 -9.34 28.68 -9 28 C-9.99 27.67 -10.98 27.34 -12 27 C-11.01 26.34 -10.02 25.68 -9 25 C-9 23.68 -9 22.36 -9 21 C-9.66 20.34 -10.32 19.68 -11 19 C-10.34 18.67 -9.68 18.34 -9 18 C-10.32 17.34 -11.64 16.68 -13 16 C-13 15.01 -13 14.02 -13 13 C-12.01 13 -11.02 13 -10 13 C-10 12.34 -10 11.68 -10 11 C-10.99 10.67 -11.98 10.34 -13 10 C-12.34 9.67 -11.68 9.34 -11 9 C-11.99 7.02 -12.98 5.04 -14 3 C-12.68 3.33 -11.36 3.66 -10 4 C-10 3.34 -10 2.68 -10 2 C-9.01 2 -8.02 2 -7 2 C-7.66 1.01 -8.32 0.02 -9 -1 C-5.1851221 -2.27162597 -3.6068725 -1.64661571 0 0 Z " fill="#9BAFBF" transform="translate(41,24)"/>
<path d="M0 0 C27.06 0 54.12 0 82 0 C82 0.33 82 0.66 82 1 C71.605 1.495 71.605 1.495 61 2 C60.01 4.97 59.02 7.94 58 11 C57.01 11 56.02 11 55 11 C55 10.34 55 9.68 55 9 C54.01 8.67 53.02 8.34 52 8 C51.67 8.66 51.34 9.32 51 10 C50.34 10 49.68 10 49 10 C48.505 5.545 48.505 5.545 48 1 C32.16 1 16.32 1 0 1 C0 0.67 0 0.34 0 0 Z " fill="#CED9E9" transform="translate(23,4)"/>
<path d="M0 0 C0.66 0 1.32 0 2 0 C2.33 1.32 2.66 2.64 3 4 C3.66 4 4.32 4 5 4 C5.33 4.66 5.66 5.32 6 6 C7.32 6 8.64 6 10 6 C11.34164079 6.2981424 12.67851173 6.62243192 14 7 C13.37240135 9.92879371 12.41377341 12.36095629 11 15 C11.5775 14.649375 12.155 14.29875 12.75 13.9375 C15.35801776 12.85082593 16.39417629 13.06934867 19 14 C18.67 14.99 18.34 15.98 18 17 C17.34 17 16.68 17 16 17 C16 17.99 16 18.98 16 20 C17.32 20.66 18.64 21.32 20 22 C20 22.99 20 23.98 20 25 C19.34 25 18.68 25 18 25 C18 24.01 18 23.02 18 22 C17.01 22 16.02 22 15 22 C15 20.35 15 18.7 15 17 C13.35 16.67 11.7 16.34 10 16 C10 15.34 10 14.68 10 14 C9.34 14 8.68 14 8 14 C7.566875 15.2065625 7.566875 15.2065625 7.125 16.4375 C6 19 6 19 4 20 C5.33333333 16.66666667 6.66666667 13.33333333 8 10 C3.71 10 -0.58 10 -5 10 C-4.67 9.34 -4.34 8.68 -4 8 C-5.84188612 5.94729537 -5.84188612 5.94729537 -8 5 C-6.68 3.68 -5.36 2.36 -4 1 C-3.01 1.66 -2.02 2.32 -1 3 C-0.67 2.01 -0.34 1.02 0 0 Z " fill="#559CBE" transform="translate(56,80)"/>
<path d="M0 0 C-0.99 0.495 -0.99 0.495 -2 1 C-1.814375 1.721875 -1.62875 2.44375 -1.4375 3.1875 C-0.98004693 6.12826973 -1.26483643 8.14103058 -2 11 C-1.34 11.33 -0.68 11.66 0 12 C0 12.66 0 13.32 0 14 C0.66 14 1.32 14 2 14 C2.33 16.64 2.66 19.28 3 22 C3.66 22 4.32 22 5 22 C4.67 23.32 4.34 24.64 4 26 C4.99 26.33 5.98 26.66 7 27 C6.7525 27.928125 6.7525 27.928125 6.5 28.875 C5.92365356 30.96063386 5.92365356 30.96063386 6 33 C4.68 32.34 3.36 31.68 2 31 C2.33 30.34 2.66 29.68 3 29 C2.01 28.67 1.02 28.34 0 28 C0.66 26.68 1.32 25.36 2 24 C0.35 24 -1.3 24 -3 24 C-3.125 17.25 -3.125 17.25 -2 15 C-4.475 14.01 -4.475 14.01 -7 13 C-7.12375 11.329375 -7.12375 11.329375 -7.25 9.625 C-7.57873787 5.94246056 -7.57873787 5.94246056 -10.0625 4.5625 C-10.701875 4.376875 -11.34125 4.19125 -12 4 C-10.02 4 -8.04 4 -6 4 C-6 2.68 -6 1.36 -6 0 C-6.66 -0.33 -7.32 -0.66 -8 -1 C-3.375 -2.25 -3.375 -2.25 0 0 Z " fill="#82959B" transform="translate(34,43)"/>
<path d="M0 0 C0.495 0.70125 0.99 1.4025 1.5 2.125 C6.87434442 8.30549608 12.78014483 12.43032037 21.078125 13.3359375 C29.6663951 13.44170437 36.93780228 12.85014172 43.39453125 6.73046875 C45.35855942 4.54630432 47.21584746 2.33235583 49 0 C50.1171875 3.71875 50.1171875 3.71875 49.0625 6.25 C48.5365625 7.11625 48.5365625 7.11625 48 8 C47.34 8 46.68 8 46 8 C45.67 8.66 45.34 9.32 45 10 C41.75395419 12.97554199 39.40147657 14.49697411 35 15 C34.67 16.32 34.34 17.64 34 19 C33.505 18.01 33.505 18.01 33 17 C30.53533017 16.71161282 28.16069714 16.53235602 25.6875 16.4375 C17.43493773 16.06845107 17.43493773 16.06845107 14 15 C14 14.34 14 13.68 14 13 C13.236875 12.87625 12.47375 12.7525 11.6875 12.625 C9 12 9 12 6 10 C6 9.34 6 8.68 6 8 C4.68 7.67 3.36 7.34 2 7 C2 6.01 2 5.02 2 4 C1.34 4 0.68 4 0 4 C0 2.68 0 1.36 0 0 Z " fill="#ADA880" transform="translate(40,64)"/>
<path d="M0 0 C2.69236138 0.87501745 3.93000175 1.45750263 5.5 3.8125 C5.2181953 6.13738881 4.54553582 7.72142835 3.5 9.8125 C4.16 10.1425 4.82 10.4725 5.5 10.8125 C5.98339973 17.21754648 5.98339973 17.21754648 3.875 19.8125 C0.68820399 21.15430884 -1.21109893 20.74197204 -4.5 19.8125 C-5.16 19.1525 -5.82 18.4925 -6.5 17.8125 C-6.5 16.8225 -6.5 15.8325 -6.5 14.8125 C-3.86 15.1425 -1.22 15.4725 1.5 15.8125 C1.15213292 13.83713255 1.15213292 13.83713255 0.5 11.8125 C-0.16 11.4825 -0.82 11.1525 -1.5 10.8125 C-1.5 9.8225 -1.5 8.8325 -1.5 7.8125 C-0.84 7.4825 -0.18 7.1525 0.5 6.8125 C0.5 6.1525 0.5 5.4925 0.5 4.8125 C-1.81 5.1425 -4.12 5.4725 -6.5 5.8125 C-6.1875 3.9375 -6.1875 3.9375 -5.5 1.8125 C-2.5 -0.1875 -2.5 -0.1875 0 0 Z " fill="#EEF4F7" transform="translate(73.5,89.1875)"/>
<path d="M0 0 C0 0.33 0 0.66 0 1 C-27.38047678 1.80735426 -54.62648342 2.14467294 -82 1 C-82 0.67 -82 0.34 -82 0 C-54.73303561 -1.59890053 -27.26482002 -1.69836476 0 0 Z " fill="#453D10" transform="translate(105,1)"/>
<path d="M0 0 C0 3 0 3 -1.5 4.6875 C-1.995 5.120625 -2.49 5.55375 -3 6 C-2.01 6 -1.02 6 0 6 C-0.66 7.98 -1.32 9.96 -2 12 C-1.01 12.33 -0.02 12.66 1 13 C0.67 13.99 0.34 14.98 0 16 C-0.99 16.33 -1.98 16.66 -3 17 C-3 17.99 -3 18.98 -3 20 C-3.99 19.67 -4.98 19.34 -6 19 C-6.33 16.69 -6.66 14.38 -7 12 C-7.99 12.33 -8.98 12.66 -10 13 C-10.144375 12.360625 -10.28875 11.72125 -10.4375 11.0625 C-10.81007181 9.02454854 -10.81007181 9.02454854 -12 8 C-12.99 8 -13.98 8 -15 8 C-14.67 7.01 -14.34 6.02 -14 5 C-13.01 4.67 -12.02 4.34 -11 4 C-11 4.66 -11 5.32 -11 6 C-10.0925 5.54625 -9.185 5.0925 -8.25 4.625 C-6.39998123 3.69999062 -4.54746335 2.77984703 -2.6875 1.875 C-1.01477314 1.11552109 -1.01477314 1.11552109 0 0 Z " fill="#B5BBAF" transform="translate(98,18)"/>
<path d="M0 0 C5.28 0 10.56 0 16 0 C10.84048271 6.44939661 10.05003475 6.65832754 2 8 C1.67 19.22 1.34 30.44 1 42 C0.67 42 0.34 42 0 42 C0 28.14 0 14.28 0 0 Z " fill="#3C85BC" transform="translate(6,63)"/>
<path d="M0 0 C1.65 1.65 3.3 3.3 5 5 C3.35 5.33 1.7 5.66 0 6 C0 6.99 0 7.98 0 9 C-0.99 9.495 -0.99 9.495 -2 10 C-2.69437747 11.99054876 -3.35610218 13.99255385 -4 16 C-4.75410156 17.35931641 -4.75410156 17.35931641 -5.5234375 18.74609375 C-7.2041506 22.44988743 -7.49656934 25.32727006 -7.6875 29.375 C-7.75324219 30.62023437 -7.81898437 31.86546875 -7.88671875 33.1484375 C-7.92410156 34.08945312 -7.96148437 35.03046875 -8 36 C-9.32 35.34 -10.64 34.68 -12 34 C-12 33.01 -12 32.02 -12 31 C-11.34 31 -10.68 31 -10 31 C-10 26.05 -10 21.1 -10 16 C-9.34 16 -8.68 16 -8 16 C-7.67 14.35 -7.34 12.7 -7 11 C-6.01 11.33 -5.02 11.66 -4 12 C-3.92572162 8.65747276 -3.93453047 6.1964086 -5 3 C-3.35 2.67 -1.7 2.34 0 2 C0 1.34 0 0.68 0 0 Z " fill="#C2BB9B" transform="translate(45,20)"/>
<path d="M0 0 C2.79394531 -0.37231445 2.79394531 -0.37231445 6.328125 -0.36328125 C7.60300781 -0.36263672 8.87789062 -0.36199219 10.19140625 -0.36132812 C11.19131592 -0.34888062 11.19131592 -0.34888062 12.21142578 -0.33618164 C14.22860233 -0.31274857 16.24444213 -0.31559898 18.26171875 -0.32226562 C32.41088853 -0.24389661 32.41088853 -0.24389661 36.875 3.625 C37.24625 4.07875 37.6175 4.5325 38 5 C37.67 5.66 37.34 6.32 37 7 C36.67346436 6.5155542 36.34692871 6.0311084 36.01049805 5.53198242 C32.91093211 3.17013953 29.58127911 3.51931528 25.83203125 3.48828125 C25.03721848 3.47033005 24.2424057 3.45237885 23.42350769 3.43388367 C20.88655899 3.3797303 18.34979893 3.34586972 15.8125 3.3125 C14.09177059 3.27933126 12.3710661 3.24484201 10.65039062 3.20898438 C6.43372978 3.12400127 2.21712536 3.05721458 -2 3 C-1.34 2.01 -0.68 1.02 0 0 Z " fill="#FCC870" transform="translate(49,32)"/>
<path d="M0 0 C4.29 0 8.58 0 13 0 C12.13052085 4.34739573 11.1428825 6.49090022 8.921875 10.15234375 C7.46918703 13.06387514 7.26317379 15.77612102 7 19 C5.68 19 4.36 19 3 19 C3.43173504 12.84777564 4.65405342 9.18082051 8 4 C5.36 4 2.72 4 0 4 C0 2.68 0 1.36 0 0 Z " fill="#EFF4F7" transform="translate(51,90)"/>
<path d="M0 0 C0.598125 0.309375 1.19625 0.61875 1.8125 0.9375 C4.3763939 2.18281989 6.18541165 2.15636602 9 2 C9 2.66 9 3.32 9 4 C5.535 5.485 5.535 5.485 2 7 C4.97 7.33 7.94 7.66 11 8 C10.67 9.65 10.34 11.3 10 13 C6.37 13.66 2.74 14.32 -1 15 C-1.125 6.375 -1.125 6.375 0 3 C-0.66 3 -1.32 3 -2 3 C-2 2.34 -2 1.68 -2 1 C-1.34 0.67 -0.68 0.34 0 0 Z " fill="#93A5A9" transform="translate(96,40)"/>
<path d="M0 0 C2.96844435 -0.35338623 5.15598218 -0.5417682 7.734375 1.11328125 C9.20348819 2.35503168 10.60704814 3.67337918 12 5 C9.37886292 5 7.49064888 4.68707555 5 4 C4.67 5.98 4.34 7.96 4 10 C3.01 9.67 2.02 9.34 1 9 C0.5875 9.474375 0.175 9.94875 -0.25 10.4375 C-2.22288091 12.19900082 -3.48401763 12.37100441 -6 13 C-7.73026102 14.47890069 -7.73026102 14.47890069 -9 16 C-9.66 15.34 -10.32 14.68 -11 14 C-10.34 13.01 -9.68 12.02 -9 11 C-8.01 11 -7.02 11 -6 11 C-5.731875 10.21625 -5.46375 9.4325 -5.1875 8.625 C-4 6 -4 6 -1 4 C-1.33 3.34 -1.66 2.68 -2 2 C-1.34 2 -0.68 2 0 2 C0 1.34 0 0.68 0 0 Z " fill="#6D98B3" transform="translate(90,72)"/>
<path d="M0 0 C2.91697011 0.14104691 5.8334802 0.28764814 8.75 0.4375 C9.9875 0.49647461 9.9875 0.49647461 11.25 0.55664062 C12.44882813 0.61948242 12.44882813 0.61948242 13.671875 0.68359375 C14.4050293 0.72025146 15.13818359 0.75690918 15.89355469 0.79467773 C18.01177605 1.00114785 19.9519456 1.43132086 22 2 C22 2.66 22 3.32 22 4 C22.99 4.33 23.98 4.66 25 5 C24.34 5.33 23.68 5.66 23 6 C22.46890625 5.69835937 21.9378125 5.39671875 21.390625 5.0859375 C15.39975319 2.36459377 5.68037837 2.99576696 -0.6484375 4.72265625 C-2.59878996 5.67470577 -4.25832508 6.70818898 -6 8 C-6.66773438 8.45503906 -7.33546875 8.91007812 -8.0234375 9.37890625 C-9.7090986 10.54820871 -11.35878648 11.76908986 -13 13 C-12.67 11.68 -12.34 10.36 -12 9 C-11.34 9 -10.68 9 -10 9 C-10 8.01 -10 7.02 -10 6 C-8.35 5.67 -6.7 5.34 -5 5 C-5 4.01 -5 3.02 -5 2 C-3.35 2 -1.7 2 0 2 C0 1.34 0 0.68 0 0 Z " fill="#E9C275" transform="translate(55,20)"/>
<path d="M0 0 C0.66 0.33 1.32 0.66 2 1 C0.35 3.64 -1.3 6.28 -3 9 C-1.35 7.35 0.3 5.7 2 4 C2.66 4.33 3.32 4.66 4 5 C2.5359872 7.84381248 1.02924807 10.51980792 -1 13 C-4.3125 14 -4.3125 14 -7 14 C-7 13.34 -7 12.68 -7 12 C-7.66 12 -8.32 12 -9 12 C-9.12375 11.360625 -9.2475 10.72125 -9.375 10.0625 C-9.58125 9.381875 -9.7875 8.70125 -10 8 C-10.66 7.67 -11.32 7.34 -12 7 C-12.625 4.4375 -12.625 4.4375 -13 2 C-12.34 1.67 -11.68 1.34 -11 1 C-11 1.66 -11 2.32 -11 3 C-10.34 3 -9.68 3 -9 3 C-9 3.66 -9 4.32 -9 5 C-8.34 5 -7.68 5 -7 5 C-7 5.99 -7 6.98 -7 8 C-6.34 8 -5.68 8 -5 8 C-4.731875 7.236875 -4.46375 6.47375 -4.1875 5.6875 C-3.05575888 3.12619116 -2.08776599 1.80307062 0 0 Z " fill="#C0C4BD" transform="translate(87,10)"/>
<path d="M0 0 C0.66 0.99 1.32 1.98 2 3 C1.67 3.66 1.34 4.32 1 5 C2.32 6.32 3.64 7.64 5 9 C4.34 9 3.68 9 3 9 C3 9.99 3 10.98 3 12 C2.01 12.33 1.02 12.66 0 13 C-0.66 12.67 -1.32 12.34 -2 12 C-2 13.32 -2 14.64 -2 16 C-2.33 16.66 -2.66 17.32 -3 18 C-4.32 17.34 -5.64 16.68 -7 16 C-7.391875 16.639375 -7.78375 17.27875 -8.1875 17.9375 C-10.38472296 20.43778819 -11.75791433 20.64950425 -15 21 C-15 20.01 -15 19.02 -15 18 C-14.071875 17.566875 -13.14375 17.13375 -12.1875 16.6875 C-9.48254066 15.2554627 -8.0458389 14.14813084 -6 12 C-5.34 12 -4.68 12 -4 12 C-3.79503906 11.38511719 -3.59007813 10.77023438 -3.37890625 10.13671875 C-2.25260417 6.7578125 -1.12630208 3.37890625 0 0 Z " fill="#939F98" transform="translate(92,60)"/>
<path d="M0 0 C0.33 0 0.66 0 1 0 C1.33 1.65 1.66 3.3 2 5 C2.66 4.34 3.32 3.68 4 3 C4.99 3.99 5.98 4.98 7 6 C7.66 5.34 8.32 4.68 9 4 C9 5.98 9 7.96 9 10 C8.19304687 9.84660156 7.38609375 9.69320313 6.5546875 9.53515625 C2.40952821 8.9111048 -1.6922296 8.65372796 -5.875 8.4375 C-6.65875 8.39431641 -7.4425 8.35113281 -8.25 8.30664062 C-10.16650649 8.20146649 -12.08323333 8.10032075 -14 8 C-13.34 7.67 -12.68 7.34 -12 7 C-11.34786708 4.97536745 -11.34786708 4.97536745 -11 3 C-10.236875 3.20625 -9.47375 3.4125 -8.6875 3.625 C-5.78114056 4.33391203 -5.78114056 4.33391203 -3 2 C-3 3.32 -3 4.64 -3 6 C-2.34 6 -1.68 6 -1 6 C-1.020625 5.195625 -1.04125 4.39125 -1.0625 3.5625 C-1 1 -1 1 0 0 Z " fill="#CEC39A" transform="translate(70,13)"/>
<path d="M0 0 C0.77214844 -0.020625 1.54429688 -0.04125 2.33984375 -0.0625 C8.05986966 -0.10215356 8.05986966 -0.10215356 10.24414062 1.64550781 C11.5 3.25 11.5 3.25 11.5 5.25 C3.58 4.92 -4.34 4.59 -12.5 4.25 C-12.17 3.26 -11.84 2.27 -11.5 1.25 C-7.65785626 -0.03071458 -4.00434108 0.02674017 0 0 Z " fill="#FEF2DD" transform="translate(65.5,22.75)"/>
<path d="M0 0 C1.15227006 2.30454012 1.04013973 3.64877738 0.75 6.1875 C0.5025 6.785625 0.255 7.38375 0 8 C-0.99 8.33 -1.98 8.66 -3 9 C-3.33 9.99 -3.66 10.98 -4 12 C-4.99 12.33 -5.98 12.66 -7 13 C-7.82638376 10.10765685 -8 8.11257569 -8 5 C-8.66 4.01 -9.32 3.02 -10 2 C-9.01 2 -8.02 2 -7 2 C-7.66 1.01 -8.32 0.02 -9 -1 C-5.1851221 -2.27162597 -3.6068725 -1.64661571 0 0 Z " fill="#ACB1AA" transform="translate(41,24)"/>
<path d="M0 0 C2.5 0.5 2.5 0.5 4.3125 3 C4.704375 3.825 5.09625 4.65 5.5 5.5 C4.18 5.17 2.86 4.84 1.5 4.5 C1.5 5.16 1.5 5.82 1.5 6.5 C-4.25 7.5 -4.25 7.5 -6.5 7.5 C-7.098125 7.891875 -7.69625 8.28375 -8.3125 8.6875 C-10.5 9.5 -10.5 9.5 -13.25 8.3125 C-13.9925 7.714375 -14.735 7.11625 -15.5 6.5 C-15.5 5.51 -15.5 4.52 -15.5 3.5 C-14.51 3.17 -13.52 2.84 -12.5 2.5 C-11.84 3.16 -11.18 3.82 -10.5 4.5 C-7.62255649 4.27865819 -6.02909081 4.05113626 -4 1.9375 C-2.5 0.5 -2.5 0.5 0 0 Z " fill="#5AA0C7" transform="translate(87.5,82.5)"/>
<path d="M0 0 C0.66 0 1.32 0 2 0 C2.33 1.32 2.66 2.64 3 4 C3.66 4 4.32 4 5 4 C5.12375 4.804375 5.2475 5.60875 5.375 6.4375 C5.58125 7.283125 5.7875 8.12875 6 9 C6.66 9.33 7.32 9.66 8 10 C3.71 10 -0.58 10 -5 10 C-4.67 9.34 -4.34 8.68 -4 8 C-5.84188612 5.94729537 -5.84188612 5.94729537 -8 5 C-6.68 3.68 -5.36 2.36 -4 1 C-3.01 1.66 -2.02 2.32 -1 3 C-0.67 2.01 -0.34 1.02 0 0 Z " fill="#66A3C2" transform="translate(56,80)"/>
<path d="M0 0 C0.66 0 1.32 0 2 0 C2 0.66 2 1.32 2 2 C3.32 1.67 4.64 1.34 6 1 C6.33 1.66 6.66 2.32 7 3 C8.92638012 3.75243555 8.92638012 3.75243555 11 4 C11.66 3.67 12.32 3.34 13 3 C12.67 4.65 12.34 6.3 12 8 C13.32 7.67 14.64 7.34 16 7 C16.33 7.99 16.66 8.98 17 10 C18.65 10 20.3 10 22 10 C22 10.33 22 10.66 22 11 C20.02 11 18.04 11 16 11 C16 12.65 16 14.3 16 16 C15.67 16 15.34 16 15 16 C14.34 14.02 13.68 12.04 13 10 C12.01 10.495 12.01 10.495 11 11 C11 10.01 11 9.02 11 8 C9.02 8.99 9.02 8.99 7 10 C7.33 8.35 7.66 6.7 8 5 C7.38125 5.495 6.7625 5.99 6.125 6.5 C4 8 4 8 2 8 C0 2 0 2 0 0 Z " fill="#5F99BD" transform="translate(35,78)"/>
<path d="M0 0 C0.495 0.70125 0.99 1.4025 1.5 2.125 C7.0251215 8.47888973 12.95198594 12.39055867 21.4296875 13.4140625 C22.56664063 13.48367187 23.70359375 13.55328125 24.875 13.625 C26.02742188 13.69976562 27.17984375 13.77453125 28.3671875 13.8515625 C29.67042969 13.92503906 29.67042969 13.92503906 31 14 C31 14.66 31 15.32 31 16 C28.91673869 16.02709444 26.83337559 16.04643873 24.75 16.0625 C23.00976562 16.07990234 23.00976562 16.07990234 21.234375 16.09765625 C18.59022872 16.01782092 16.50173909 15.78643778 14 15 C14 14.34 14 13.68 14 13 C13.236875 12.87625 12.47375 12.7525 11.6875 12.625 C9 12 9 12 6 10 C6 9.34 6 8.68 6 8 C4.68 7.67 3.36 7.34 2 7 C2 6.01 2 5.02 2 4 C1.34 4 0.68 4 0 4 C0 2.68 0 1.36 0 0 Z " fill="#BAA973" transform="translate(40,64)"/>
<path d="M0 0 C-0.99 0.495 -0.99 0.495 -2 1 C-1.79375 1.70125 -1.5875 2.4025 -1.375 3.125 C-0.92149643 6.60186072 -1.72459723 8.77398123 -3 12 C-5.475 11.01 -5.475 11.01 -8 10 C-8 8.68 -8 7.36 -8 6 C-9.32 5.34 -10.64 4.68 -12 4 C-10.02 4 -8.04 4 -6 4 C-6 2.68 -6 1.36 -6 0 C-6.66 -0.33 -7.32 -0.66 -8 -1 C-3.375 -2.25 -3.375 -2.25 0 0 Z " fill="#89A0AD" transform="translate(34,43)"/>
<path d="M0 0 C0.66 0.99 1.32 1.98 2 3 C4.05003955 4.19232613 4.05003955 4.19232613 6 5 C6 5.66 6 6.32 6 7 C6.66 7 7.32 7 8 7 C8 6.34 8 5.68 8 5 C10.97 5.495 10.97 5.495 14 6 C13.01 6.495 13.01 6.495 12 7 C11.34786708 9.02463255 11.34786708 9.02463255 11 11 C9.68 10.34 8.36 9.68 7 9 C5.68 10.32 4.36 11.64 3 13 C3 11.68 3 10.36 3 9 C2.01 9.495 2.01 9.495 1 10 C0.67 8.68 0.34 7.36 0 6 C-0.99 6.495 -0.99 6.495 -2 7 C-1.34 4.69 -0.68 2.38 0 0 Z " fill="#8A9FA0" transform="translate(44,73)"/>
<path d="M0 0 C2.87848453 1.29035514 5.05145511 2.48815895 7 5 C6.9609375 7.15625 6.9609375 7.15625 6.375 9.5 C6.19710938 10.2734375 6.01921875 11.046875 5.8359375 11.84375 C4.91193911 14.22714772 4.01566176 15.44128927 2 17 C-0.1875 16.6875 -0.1875 16.6875 -2 16 C-1.34 16 -0.68 16 0 16 C0.28875 15.2575 0.5775 14.515 0.875 13.75 C1.82302644 11.43260203 2.84845911 9.22082885 4 7 C3.01 7.33 2.02 7.66 1 8 C1 6.68 1 5.36 1 4 C-0.32 3.67 -1.64 3.34 -3 3 C-2.01 2.01 -1.02 1.02 0 0 Z " fill="#4B86B1" transform="translate(25,53)"/>
<path d="M0 0 C1.65 0 3.3 0 5 0 C5.268125 0.804375 5.53625 1.60875 5.8125 2.4375 C6.204375 3.283125 6.59625 4.12875 7 5 C7.99 5.33 8.98 5.66 10 6 C14.10823958 13.32338359 14.51548809 20.7951479 14 29 C13.67 29 13.34 29 13 29 C12.82984375 27.84242187 12.6596875 26.68484375 12.484375 25.4921875 C12.24035779 23.95300202 11.99552264 22.41394606 11.75 20.875 C11.64042969 20.11445312 11.53085938 19.35390625 11.41796875 18.5703125 C10.36497628 12.14151639 8.08960088 7.21916834 2.75 3.1875 C1.8425 2.465625 0.935 1.74375 0 1 C0 0.67 0 0.34 0 0 Z " fill="#D6B673" transform="translate(80,27)"/>
<path d="M0 0 C1.9375 0.8125 1.9375 0.8125 4 2 C4.33 2.99 4.66 3.98 5 5 C3.71034824 6.37562854 2.37310707 7.70766393 1 9 C0.34 9 -0.32 9 -1 9 C-1.33 9.66 -1.66 10.32 -2 11 C-3.65 10.67 -5.3 10.34 -7 10 C-6.34 8.35 -5.68 6.7 -5 5 C-3.68 5.33 -2.36 5.66 -1 6 C-1.20625 5.38125 -1.4125 4.7625 -1.625 4.125 C-1.74875 3.42375 -1.8725 2.7225 -2 2 C-1.34 1.34 -0.68 0.68 0 0 Z " fill="#B6C3CC" transform="translate(45,10)"/>
<path d="M0 0 C2.625 0.375 2.625 0.375 5 1 C5.625 3.375 5.625 3.375 6 6 C4 8 4 8 1.4375 8.1875 C-1 8 -1 8 -2 7 C-2.1875 4.5625 -2.1875 4.5625 -2 2 C-1.34 1.34 -0.68 0.68 0 0 Z " fill="#9BC1D5" transform="translate(84,89)"/>
<path d="M0 0 C0 2 0 4 0 6 C0.66 6.33 1.32 6.66 2 7 C1.67 7.99 1.34 8.98 1 10 C0.01 10.33 -0.98 10.66 -2 11 C-2 11.99 -2 12.98 -2 14 C-2.99 13.67 -3.98 13.34 -5 13 C-6.15363649 8.96227228 -6.04336367 6.69751521 -4 3 C-1.875 1.1875 -1.875 1.1875 0 0 Z " fill="#B1B2A0" transform="translate(97,24)"/>
<path d="M0 0 C-0.11433363 2.25056722 -0.24186436 4.50046674 -0.375 6.75 C-0.44460937 8.00296875 -0.51421875 9.2559375 -0.5859375 10.546875 C-0.95323304 13.60998121 -1.39711286 15.41974266 -3 18 C-3.66 17.67 -4.32 17.34 -5 17 C-4.67 16.34 -4.34 15.68 -4 15 C-4.99 14.67 -5.98 14.34 -7 14 C-6.01 13.34 -5.02 12.68 -4 12 C-4 10.68 -4 9.36 -4 8 C-4.66 7.34 -5.32 6.68 -6 6 C-5.34 5.67 -4.68 5.34 -4 5 C-4 4.01 -4 3.02 -4 2 C-1 0 -1 0 0 0 Z " fill="#9EA89C" transform="translate(36,37)"/>
<path d="M0 0 C2.97 0.495 2.97 0.495 6 1 C6.33 2.65 6.66 4.3 7 6 C5.35 7.32 3.7 8.64 2 10 C3.32 10.33 4.64 10.66 6 11 C4.25 12.125 4.25 12.125 2 13 C-0.25 12.125 -0.25 12.125 -2 11 C-1.6875 9.125 -1.6875 9.125 -1 7 C-0.01 6.34 0.98 5.68 2 5 C1.01 4.34 0.02 3.68 -1 3 C-0.67 2.01 -0.34 1.02 0 0 Z " fill="#9AACB4" transform="translate(96,27)"/>
<path d="M0 0 C1.32 0 2.64 0 4 0 C4.33 1.65 4.66 3.3 5 5 C4.01 5.33 3.02 5.66 2 6 C1.67 6.66 1.34 7.32 1 8 C3.475 8.99 3.475 8.99 6 10 C4.25 10.6875 4.25 10.6875 2 11 C-1.1798762 9.22301036 -2.6190998 7.33717549 -4 4 C-2.68 4 -1.36 4 0 4 C0 2.68 0 1.36 0 0 Z " fill="#668CAD" transform="translate(98,61)"/>
<path d="M0 0 C1.65 0.33 3.3 0.66 5 1 C3.02 1.99 3.02 1.99 1 3 C1 3.66 1 4.32 1 5 C1.66 5 2.32 5 3 5 C2.67 10.61 2.34 16.22 2 22 C1.01 22 0.02 22 -1 22 C-1.33 23.32 -1.66 24.64 -2 26 C-3 24 -3 24 -2.0625 20.875 C-1.711875 19.92625 -1.36125 18.9775 -1 18 C-0.34 18 0.32 18 1 18 C0.67 12.06 0.34 6.12 0 0 Z " fill="#ABA785" transform="translate(93,38)"/>
<path d="M0 0 C4.29 0 8.58 0 13 0 C12.67 1.65 12.34 3.3 12 5 C11.01 4.34 10.02 3.68 9 3 C8.01 3.495 8.01 3.495 7 4 C4.98072489 3.39421747 2.97746603 2.73080266 1 2 C0.67 2.99 0.34 3.98 0 5 C0 3.35 0 1.7 0 0 Z " fill="#95A599" transform="translate(58,80)"/>
<path d="M0 0 C2.31 0 4.62 0 7 0 C6.67 1.65 6.34 3.3 6 5 C3.36 5.33 0.72 5.66 -2 6 C-2.33 4.68 -2.66 3.36 -3 2 C-2.01 2 -1.02 2 0 2 C0 1.34 0 0.68 0 0 Z " fill="#7398B2" transform="translate(100,48)"/>
<path d="M0 0 C1.32 0.66 2.64 1.32 4 2 C2.72125 2.2475 1.4425 2.495 0.125 2.75 C-2.07720652 3.25739006 -2.07720652 3.25739006 -4 4 C-5.12516085 5.83284443 -5.12516085 5.83284443 -6 8 C-8.22209054 9.83518537 -10.58768581 11.42619075 -13 13 C-12.67 11.68 -12.34 10.36 -12 9 C-11.34 9 -10.68 9 -10 9 C-10 8.01 -10 7.02 -10 6 C-8.35 5.67 -6.7 5.34 -5 5 C-5 4.01 -5 3.02 -5 2 C-3.35 2 -1.7 2 0 2 C0 1.34 0 0.68 0 0 Z " fill="#D8BF82" transform="translate(55,20)"/>
<path d="M0 0 C2.50037734 2.17424117 3.43628586 3.73045798 4 7 C3.01 7.66 2.02 8.32 1 9 C0.34 8.34 -0.32 7.68 -1 7 C-1.66 7 -2.32 7 -3 7 C-3.33 7.99 -3.66 8.98 -4 10 C-4 8.02 -4 6.04 -4 4 C-3.01 3.67 -2.02 3.34 -1 3 C-0.67 2.01 -0.34 1.02 0 0 Z " fill="#72A0B4" transform="translate(75,79)"/>
<path d="M0 0 C2.625 0.375 2.625 0.375 5 1 C5 1.66 5 2.32 5 3 C5.66 3 6.32 3 7 3 C6.75 5.375 6.75 5.375 6 8 C3.9375 9.3125 3.9375 9.3125 2 10 C2.33 8.02 2.66 6.04 3 4 C0.525 3.01 0.525 3.01 -2 2 C-1.34 1.34 -0.68 0.68 0 0 Z " fill="#5D8AA4" transform="translate(29,54)"/>
<path d="M0 0 C3 1 3 1 4.6875 3.6875 C6.03558623 7.08981286 6.25833766 9.38327271 6 13 C6.66 13 7.32 13 8 13 C7.67 13.66 7.34 14.32 7 15 C5.68 14.67 4.36 14.34 3 14 C3.66 12.68 4.32 11.36 5 10 C4.34 10 3.68 10 3 10 C1.64560332 7.29120665 1.93498549 4.99066732 2 2 C1.34 2 0.68 2 0 2 C0 1.34 0 0.68 0 0 Z " fill="#9E9E82" transform="translate(34,55)"/>
<path d="M0 0 C-5.10334017 1.905247 -9.46342706 3.42589023 -15 3 C-15 2.01 -15 1.02 -15 0 C-13.25093341 -0.19601608 -11.50068154 -0.38147403 -9.75 -0.5625 C-8.77546875 -0.66691406 -7.8009375 -0.77132812 -6.796875 -0.87890625 C-4.2368648 -0.98974468 -2.41851841 -0.77738092 0 0 Z " fill="#237FBF" transform="translate(22,64)"/>
<path d="M0 0 C-1 3 -1 3 -3 4 C-2.67 4.66 -2.34 5.32 -2 6 C-4.375 5.3125 -4.375 5.3125 -7 4 C-8.3125 1.375 -8.3125 1.375 -9 -1 C-5.23375329 -2.25541557 -3.62811066 -1.37061958 0 0 Z " fill="#A9B9C1" transform="translate(41,24)"/>
<path d="M0 0 C0.66 0 1.32 0 2 0 C2 4.62 2 9.24 2 14 C0.68 13.34 -0.64 12.68 -2 12 C-2 11.01 -2 10.02 -2 9 C-1.34 9 -0.68 9 0 9 C0 6.03 0 3.06 0 0 Z " fill="#BDAC79" transform="translate(35,42)"/>
<path d="M0 0 C0.99 0.99 1.98 1.98 3 3 C2.34 3 1.68 3 1 3 C1 3.99 1 4.98 1 6 C0.01 6.33 -0.98 6.66 -2 7 C-2.66 6.67 -3.32 6.34 -4 6 C-4 6.66 -4 7.32 -4 8 C-4.99 7.67 -5.98 7.34 -7 7 C-6.34 7 -5.68 7 -5 7 C-4.731875 6.030625 -4.46375 5.06125 -4.1875 4.0625 C-3.5996875 2.5465625 -3.5996875 2.5465625 -3 1 C-2.01 0.67 -1.02 0.34 0 0 Z " fill="#8096A0" transform="translate(94,66)"/>
<path d="M0 0 C1.98 0.99 1.98 0.99 4 2 C4 2.66 4 3.32 4 4 C5.32 3.34 6.64 2.68 8 2 C8 2.99 8 3.98 8 5 C8.99 5 9.98 5 11 5 C10.34 6.32 9.68 7.64 9 9 C6.50638429 7.79618552 4.31856917 6.54571278 2 5 C2 4.34 2 3.68 2 3 C1.34 2.67 0.68 2.34 0 2 C0 1.34 0 0.68 0 0 Z " fill="#7598AE" transform="translate(35,74)"/>
<path d="M0 0 C1 4 1 4 0.0625 6.25 C-0.4634375 7.11625 -0.4634375 7.11625 -1 8 C-1.66 8 -2.32 8 -3 8 C-3.33 8.66 -3.66 9.32 -4 10 C-5.32 9.67 -6.64 9.34 -8 9 C-5.36 6.03 -2.72 3.06 0 0 Z " fill="#B5A575" transform="translate(89,64)"/>
<path d="M0 0 C0.99 0 1.98 0 3 0 C3 0.99 3 1.98 3 3 C2.34 3 1.68 3 1 3 C0.01 5.97 -0.98 8.94 -2 12 C-2.33 12 -2.66 12 -3 12 C-3.28999491 7.07008655 -3.19703098 3.90748231 0 0 Z " fill="#FDDEA6" transform="translate(41,35)"/>
<path d="M0 0 C0 3 0 3 -1.5 4.6875 C-1.995 5.120625 -2.49 5.55375 -3 6 C-2.67 6.66 -2.34 7.32 -2 8 C-3.32 8.99 -4.64 9.98 -6 11 C-6.66 10.67 -7.32 10.34 -8 10 C-7.34 9.01 -6.68 8.02 -6 7 C-6.66 6.67 -7.32 6.34 -8 6 C-8 5.34 -8 4.68 -8 4 C-6.576875 3.566875 -6.576875 3.566875 -5.125 3.125 C-1.94788422 2.23174891 -1.94788422 2.23174891 0 0 Z " fill="#ABBAC6" transform="translate(98,18)"/>
<path d="M0 0 C0.66 0 1.32 0 2 0 C2.33 1.98 2.66 3.96 3 6 C1.02 6.33 -0.96 6.66 -3 7 C-3 6.01 -3 5.02 -3 4 C-3.99 3.67 -4.98 3.34 -6 3 C-5.34 2.34 -4.68 1.68 -4 1 C-3.01 1.66 -2.02 2.32 -1 3 C-0.67 2.01 -0.34 1.02 0 0 Z " fill="#76A1B1" transform="translate(56,80)"/>
<path d="M0 0 C0.33 1.98 0.66 3.96 1 6 C0.01 6.495 0.01 6.495 -1 7 C-1 6.34 -1 5.68 -1 5 C-2.65 5 -4.3 5 -6 5 C-6 4.01 -6 3.02 -6 2 C-2.25 0 -2.25 0 0 0 Z " fill="#3E83AB" transform="translate(104,53)"/>
<path d="M0 0 C2.31 0.33 4.62 0.66 7 1 C6.34 2.98 5.68 4.96 5 7 C2.525 6.01 2.525 6.01 0 5 C0 3.35 0 1.7 0 0 Z " fill="#749AB3" transform="translate(26,48)"/>
<path d="M0 0 C2.49361571 1.20381448 4.68143083 2.45428722 7 4 C9.64632287 3.6878236 9.64632287 3.6878236 12 3 C12.33 4.32 12.66 5.64 13 7 C9.875 7.4375 9.875 7.4375 6 7 C3.61317961 4.93418366 1.79950957 2.58391118 0 0 Z " fill="#BCBCB7" transform="translate(33,16)"/>
<path d="M0 0 C0.721875 0.845625 1.44375 1.69125 2.1875 2.5625 C1.589375 2.2325 0.99125 1.9025 0.375 1.5625 C-1.86636471 0.35462012 -1.86636471 0.35462012 -4.8125 0.5625 C-5.1425 2.5425 -5.4725 4.5225 -5.8125 6.5625 C-7.8125 5.5625 -7.8125 5.5625 -8.5 3.6875 C-8.8125 1.5625 -8.8125 1.5625 -7.8125 -1.4375 C-3.93054643 -2.87936847 -3.23937503 -2.80745836 0 0 Z " fill="#6191B8" transform="translate(99.8125,75.4375)"/>
<path d="M0 0 C1.9375 0.8125 1.9375 0.8125 4 2 C4.33 2.99 4.66 3.98 5 5 C3.35 5.66 1.7 6.32 0 7 C-0.66 5.35 -1.32 3.7 -2 2 C-1.34 1.34 -0.68 0.68 0 0 Z " fill="#C1C8CD" transform="translate(45,10)"/>
<path d="M0 0 C0.66 0.66 1.32 1.32 2 2 C1.67 2.33 1.34 2.66 1 3 C1.99 3.99 2.98 4.98 4 6 C1.36 6.66 -1.28 7.32 -4 8 C-4 7.34 -4 6.68 -4 6 C-3.34 6 -2.68 6 -2 6 C-2 4.35 -2 2.7 -2 1 C-1.34 0.67 -0.68 0.34 0 0 Z " fill="#7D9193" transform="translate(97,54)"/>
<path d="M0 0 C1.485 0.99 1.485 0.99 3 2 C2.01 2.33 1.02 2.66 0 3 C0 3.99 0 4.98 0 6 C1.32 6.66 2.64 7.32 4 8 C4 8.99 4 9.98 4 11 C3.34 11 2.68 11 2 11 C2 10.01 2 9.02 2 8 C1.01 8 0.02 8 -1 8 C-1.04241723 5.66705225 -1.04092937 3.33297433 -1 1 C-0.67 0.67 -0.34 0.34 0 0 Z " fill="#5AA2C2" transform="translate(72,94)"/>
<path d="M0 0 C0.7425 0.61875 1.485 1.2375 2.25 1.875 C4.48801188 3.60437281 6.43739987 4.86106661 9 6 C8.34 6 7.68 6 7 6 C7 6.66 7 7.32 7 8 C6.34 8 5.68 8 5 8 C5 7.34 5 6.68 5 6 C2.03 5.505 2.03 5.505 -1 5 C-0.67 3.35 -0.34 1.7 0 0 Z " fill="#9CA390" transform="translate(45,72)"/>
<path d="M0 0 C1.32 0.66 2.64 1.32 4 2 C3.625 4.4375 3.625 4.4375 3 7 C2.01 7.495 2.01 7.495 1 8 C1 6.68 1 5.36 1 4 C-0.32 3.67 -1.64 3.34 -3 3 C-2.01 2.01 -1.02 1.02 0 0 Z " fill="#3380AF" transform="translate(25,53)"/>
<path d="M0 0 C0.6875 1.625 0.6875 1.625 1 4 C-0.4375 7.25 -0.4375 7.25 -2 10 C-2.66 10 -3.32 10 -4 10 C-4 7.36 -4 4.72 -4 2 C-3.01 3.485 -3.01 3.485 -2 5 C-1.34 3.35 -0.68 1.7 0 0 Z " fill="#F8C858" transform="translate(41,40)"/>
<path d="M0 0 C0 2 0 4 0 6 C0.66 6.33 1.32 6.66 2 7 C1.67 7.99 1.34 8.98 1 10 C0.67 9.34 0.34 8.68 0 8 C-2.02463255 7.34786708 -2.02463255 7.34786708 -4 7 C-3.6875 4.625 -3.6875 4.625 -3 2 C-2.01 1.34 -1.02 0.68 0 0 Z " fill="#ACB2B1" transform="translate(97,24)"/>
<path d="M0 0 C0.99 0 1.98 0 3 0 C5.29013653 3.4352048 5.17842973 4.985331 5 9 C4.34 9 3.68 9 3 9 C2.01 6.03 1.02 3.06 0 0 Z " fill="#FDD88E" transform="translate(87,39)"/>
<path d="M0 0 C-0.33 1.98 -0.66 3.96 -1 6 C-2.32 6.33 -3.64 6.66 -5 7 C-5.33 6.01 -5.66 5.02 -6 4 C-5.34 3.67 -4.68 3.34 -4 3 C-4.33 2.34 -4.66 1.68 -5 1 C-3 0 -3 0 0 0 Z " fill="#B4B7A5" transform="translate(42,26)"/>
<path d="M0 0 C0.66 0.33 1.32 0.66 2 1 C1.67 2.32 1.34 3.64 1 5 C-0.98 5.33 -2.96 5.66 -5 6 C-5.33 4.68 -5.66 3.36 -6 2 C-5.34 1.67 -4.68 1.34 -4 1 C-3.01 1.66 -2.02 2.32 -1 3 C-0.67 2.01 -0.34 1.02 0 0 Z " fill="#C8C09F" transform="translate(54,17)"/>
<path d="M0 0 C0.66 0.33 1.32 0.66 2 1 C2 1.66 2 2.32 2 3 C3.65 3 5.3 3 7 3 C7 3.33 7 3.66 7 4 C5.02 4 3.04 4 1 4 C1 5.65 1 7.3 1 9 C0.67 9 0.34 9 0 9 C-0.66 6.36 -1.32 3.72 -2 1 C-1.34 0.67 -0.68 0.34 0 0 Z " fill="#509DC6" transform="translate(50,85)"/>
<path d="M0 0 C1.37562854 1.28965176 2.70766393 2.62689293 4 4 C4 4.66 4 5.32 4 6 C4.66 6.33 5.32 6.66 6 7 C4.02 7.33 2.04 7.66 0 8 C0 5.36 0 2.72 0 0 Z " fill="#1F7DB6" transform="translate(104,55)"/>
<path d="M0 0 C1.32 0.66 2.64 1.32 4 2 C2.68 3.32 1.36 4.64 0 6 C-0.99 5.67 -1.98 5.34 -3 5 C-3 4.01 -3 3.02 -3 2 C-2.01 2 -1.02 2 0 2 C0 1.34 0 0.68 0 0 Z " fill="#91A9B8" transform="translate(31,35)"/>
<path d="M0 0 C0.66 0.66 1.32 1.32 2 2 C2.66 1.67 3.32 1.34 4 1 C4.33 2.32 4.66 3.64 5 5 C4.34 5 3.68 5 3 5 C2.67 5.99 2.34 6.98 2 8 C-0.1519437 4.77208445 -0.20086443 3.71599191 0 0 Z " fill="#1A1416" transform="translate(3,105)"/>
<path d="M0 0 C1.67542976 0.28604898 3.34385343 0.61781233 5 1 C5.33 2.32 5.66 3.64 6 5 C5.34 5 4.68 5 4 5 C3.67 4.34 3.34 3.68 3 3 C2.01 3 1.02 3 0 3 C-0.66 3.66 -1.32 4.32 -2 5 C-1.125 1.125 -1.125 1.125 0 0 Z " fill="#F1F5F8" transform="translate(84,89)"/>
<path d="M0 0 C1.32 0 2.64 0 4 0 C4.33 1.65 4.66 3.3 5 5 C3.68 5.33 2.36 5.66 1 6 C0.67 4.02 0.34 2.04 0 0 Z " fill="#4F87B0" transform="translate(98,61)"/>
<path d="M0 0 C2.97 0.495 2.97 0.495 6 1 C6.33 2.65 6.66 4.3 7 6 C6.01 6 5.02 6 4 6 C3.67 5.34 3.34 4.68 3 4 C0.97536745 3.34786708 0.97536745 3.34786708 -1 3 C-0.67 2.01 -0.34 1.02 0 0 Z " fill="#9AB0C4" transform="translate(96,27)"/>
<path d="M0 0 C2 3 2 3 2 6 C1.01 6.33 0.02 6.66 -1 7 C-2.20882096 9.00016466 -2.20882096 9.00016466 -3 11 C-2.53199289 6.94393835 -2.12046792 3.53411321 0 0 Z " fill="#959C8C" transform="translate(92,60)"/>
<path d="M0 0 C1.32 0 2.64 0 4 0 C4 0.66 4 1.32 4 2 C3.34 2.66 2.68 3.32 2 4 C1.67 4.99 1.34 5.98 1 7 C0.34 7 -0.32 7 -1 7 C-0.67 4.69 -0.34 2.38 0 0 Z " fill="#96A39A" transform="translate(96,48)"/>
<path d="M0 0 C0.99 0.66 1.98 1.32 3 2 C2.34 3.32 1.68 4.64 1 6 C0.34 6 -0.32 6 -1 6 C-1 7.65 -1 9.3 -1 11 C-1.33 11 -1.66 11 -2 11 C-2.33 9.02 -2.66 7.04 -3 5 C-2.34 5 -1.68 5 -1 5 C-0.67 3.35 -0.34 1.7 0 0 Z " fill="#B8B392" transform="translate(38,31)"/>
<path d="M0 0 C2.0625 1.75 2.0625 1.75 4 4 C3.75 6.25 3.75 6.25 3 8 C1.68 6.02 0.36 4.04 -1 2 C-0.67 1.34 -0.34 0.68 0 0 Z " fill="#FEE7C0" transform="translate(86,33)"/>
<path d="M0 0 C2.375 -0.1875 2.375 -0.1875 5 0 C5.66 0.99 6.32 1.98 7 3 C6.67 3.99 6.34 4.98 6 6 C3.97945196 4.35830472 1.97956942 2.69088222 0 1 C0 0.67 0 0.34 0 0 Z " fill="#E7C684" transform="translate(80,27)"/>
<path d="M0 0 C0.66 0.33 1.32 0.66 2 1 C0.68 3.31 -0.64 5.62 -2 8 C-2.33 7.34 -2.66 6.68 -3 6 C-3.99 6 -4.98 6 -6 6 C-5 4 -5 4 -2 3 C-1.34 2.01 -0.68 1.02 0 0 Z " fill="#B8C3C9" transform="translate(89,14)"/>
<path d="M0 0 C0.66 0 1.32 0 2 0 C6 4.47058824 6 4.47058824 6 7 C3.53199953 5.84826645 1.95216435 4.95216435 0 3 C0 2.01 0 1.02 0 0 Z " fill="#1B1218" transform="translate(7,115)"/>
<path d="M0 0 C0.33 1.32 0.66 2.64 1 4 C-2.37462715 3.45276317 -4.08235 2.9451 -7 1 C-4.50935112 0.31292445 -2.62113708 0 0 0 Z " fill="#6AC0E3" transform="translate(74,102)"/>
<path d="M0 0 C0.33 0.66 0.66 1.32 1 2 C1.66 2 2.32 2 3 2 C2.625 4.4375 2.625 4.4375 2 7 C1.01 7.495 1.01 7.495 0 8 C-0.38063221 5.6739143 -0.71269945 3.33944736 -1 1 C-0.67 0.67 -0.34 0.34 0 0 Z " fill="#6C919E" transform="translate(33,55)"/>
<path d="M0 0 C1 3 1 3 1 6 C-1.97 5.505 -1.97 5.505 -5 5 C-5 4.34 -5 3.68 -5 3 C-4.34 3 -3.68 3 -3 3 C-2.67 2.34 -2.34 1.68 -2 1 C-1.67 1.33 -1.34 1.66 -1 2 C-0.67 1.34 -0.34 0.68 0 0 Z " fill="#C7C2A1" transform="translate(78,17)"/>
<path d="M0 0 C1.32 0.66 2.64 1.32 4 2 C4 2.66 4 3.32 4 4 C2.35 3.67 0.7 3.34 -1 3 C-0.67 2.01 -0.34 1.02 0 0 Z M4 1 C5.32 1.33 6.64 1.66 8 2 C7.01 2.495 7.01 2.495 6 3 C5.34 2.34 4.68 1.68 4 1 Z " fill="#4B9BCA" transform="translate(85,85)"/>
<path d="M0 0 C0.66 0 1.32 0 2 0 C0.7508258 3.45925163 -0.67527795 6.14693203 -3 9 C-3 7.35 -3 5.7 -3 4 C-2.34 4 -1.68 4 -1 4 C-0.67 2.68 -0.34 1.36 0 0 Z " fill="#D3B87C" transform="translate(40,33)"/>
<path d="M0 0 C2 1 2 1 2 1 Z " fill="#000000" transform="translate(16,3)"/>
<path d="M0 0 C2 1 2 1 2 1 Z " fill="#000000" transform="translate(19,2)"/>
</svg>
